# Blender 4.5.6 LTS
# www.blender.org
mtllib Men.mtl
o Cylinder
v 0.000000 0.565009 -0.121928
v 0.000000 0.565009 -0.222164
v 0.007822 0.565779 -0.121928
v 0.007822 0.565779 -0.222164
v 0.015343 0.568061 -0.121928
v 0.015343 0.568061 -0.222164
v 0.022275 0.571766 -0.121928
v 0.022275 0.571766 -0.222164
v 0.028351 0.576752 -0.121928
v 0.028351 0.576752 -0.222164
v 0.033337 0.582828 -0.121928
v 0.033337 0.582828 -0.222164
v 0.037042 0.589760 -0.121928
v 0.037042 0.589760 -0.222164
v 0.039324 0.597281 -0.121928
v 0.039324 0.597281 -0.222164
v 0.040094 0.605103 -0.121928
v 0.040094 0.605103 -0.222164
v 0.039324 0.612925 -0.121928
v 0.039324 0.612925 -0.222164
v 0.037042 0.620446 -0.121928
v 0.037042 0.620446 -0.222164
v 0.033337 0.627378 -0.121928
v 0.033337 0.627378 -0.222164
v 0.028351 0.633454 -0.121928
v 0.028351 0.633454 -0.222164
v 0.022275 0.638440 -0.121928
v 0.022275 0.638440 -0.222164
v 0.015343 0.642145 -0.121928
v 0.015343 0.642145 -0.222164
v 0.007822 0.644427 -0.121928
v 0.007822 0.644427 -0.222164
v 0.000000 0.645197 -0.121928
v 0.000000 0.645197 -0.222164
v -0.007822 0.644427 -0.121928
v -0.007822 0.644427 -0.222164
v -0.015343 0.642145 -0.121928
v -0.015343 0.642145 -0.222164
v -0.022275 0.638440 -0.121928
v -0.022275 0.638440 -0.222164
v -0.028351 0.633454 -0.121928
v -0.028351 0.633454 -0.222164
v -0.033337 0.627378 -0.121928
v -0.033337 0.627378 -0.222164
v -0.037042 0.620446 -0.121928
v -0.037042 0.620446 -0.222164
v -0.039324 0.612925 -0.121928
v -0.039324 0.612925 -0.222164
v -0.040094 0.605103 -0.121928
v -0.040094 0.605103 -0.222164
v -0.039324 0.597281 -0.121928
v -0.039324 0.597281 -0.222164
v -0.037042 0.589760 -0.121928
v -0.037042 0.589760 -0.222164
v -0.033337 0.582828 -0.121928
v -0.033337 0.582828 -0.222164
v -0.028351 0.576752 -0.121928
v -0.028351 0.576752 -0.222164
v -0.022275 0.571766 -0.121928
v -0.022275 0.571766 -0.222164
v -0.015343 0.568061 -0.121928
v -0.015343 0.568061 -0.222164
v -0.007822 0.565779 -0.121928
v -0.007822 0.565779 -0.222164
v 0.008367 0.834091 0.073660
v 0.008367 0.865396 0.079729
v 0.008367 0.896701 0.073660
v 0.008367 0.940737 0.031655
v -0.003747 0.790055 0.029246
v -0.013207 0.807552 0.052085
v -0.019821 0.834091 0.068053
v -0.022144 0.865396 0.073660
v -0.019821 0.896701 0.068053
v -0.013207 0.923240 0.052085
v -0.003747 0.940737 0.029246
v -0.014016 0.790055 0.022384
v -0.031497 0.807552 0.039864
v -0.043718 0.834091 0.052085
v -0.048010 0.865396 0.056377
v -0.043718 0.896701 0.052085
v -0.031497 0.923240 0.039864
v -0.014016 0.940737 0.022384
v -0.020878 0.790055 0.012114
v -0.043718 0.807552 0.021574
v -0.059685 0.834091 0.028188
v -0.065292 0.865396 0.030511
v -0.059685 0.896701 0.028188
v -0.043718 0.923240 0.021574
v -0.020878 0.940737 0.012114
v -0.023288 0.790055 0.000000
v -0.048009 0.807552 0.000000
v -0.065292 0.834091 -0.000000
v -0.071361 0.865396 -0.000000
v -0.065292 0.896701 -0.000000
v -0.048009 0.923240 0.000000
v -0.023288 0.940737 0.000000
v -0.020878 0.790055 -0.012114
v -0.043718 0.807552 -0.021574
v -0.059685 0.834091 -0.028188
v -0.065292 0.865396 -0.030511
v -0.059685 0.896701 -0.028188
v -0.043718 0.923240 -0.021574
v -0.020878 0.940737 -0.012114
v -0.014016 0.790055 -0.022384
v -0.031497 0.807552 -0.039864
v -0.043718 0.834091 -0.052085
v -0.048009 0.865396 -0.056377
v -0.043718 0.896701 -0.052085
v -0.031497 0.923240 -0.039864
v -0.014016 0.940737 -0.022384
v -0.003747 0.790055 -0.029246
v -0.013207 0.807552 -0.052085
v -0.019821 0.834091 -0.068053
v -0.022144 0.865396 -0.073660
v -0.019821 0.896701 -0.068053
v -0.013207 0.923240 -0.052085
v -0.003747 0.940737 -0.029246
v 0.008367 0.790055 -0.031655
v 0.008367 0.807552 -0.056377
v 0.008367 0.834091 -0.073660
v 0.008367 0.865396 -0.079729
v 0.008367 0.896701 -0.073660
v 0.008367 0.923240 -0.056377
v 0.008367 0.940737 -0.031655
v 0.008367 0.947910 0.000000
v 0.008367 0.782882 0.000000
v 0.020481 0.790055 -0.029246
v 0.029942 0.807552 -0.052085
v 0.036556 0.834091 -0.068053
v 0.038878 0.865396 -0.073660
v 0.036556 0.896701 -0.068053
v 0.029942 0.923240 -0.052085
v 0.020481 0.940737 -0.029246
v 0.030751 0.790055 -0.022384
v 0.048232 0.807552 -0.039864
v 0.060452 0.834091 -0.052085
v 0.064744 0.865396 -0.056377
v 0.060452 0.896701 -0.052085
v 0.048232 0.923240 -0.039864
v 0.030751 0.940737 -0.022384
v 0.037613 0.790055 -0.012114
v 0.060452 0.807552 -0.021574
v 0.076420 0.834091 -0.028188
v 0.082027 0.865396 -0.030511
v 0.076420 0.896701 -0.028188
v 0.060452 0.923240 -0.021574
v 0.037613 0.940737 -0.012114
v 0.040022 0.790055 0.000000
v 0.064744 0.807552 0.000000
v 0.082027 0.834091 0.000000
v 0.088096 0.865396 0.000000
v 0.082027 0.896701 0.000000
v 0.064744 0.923240 0.000000
v 0.040022 0.940737 0.000000
v 0.037613 0.790055 0.012114
v 0.060452 0.807552 0.021574
v 0.076420 0.834091 0.028188
v 0.082027 0.865396 0.030511
v 0.076420 0.896701 0.028188
v 0.060452 0.923240 0.021574
v 0.037613 0.940737 0.012114
v 0.030751 0.790055 0.022384
v 0.048231 0.807552 0.039864
v 0.060452 0.834091 0.052085
v 0.064744 0.865396 0.056377
v 0.060452 0.896701 0.052085
v 0.048231 0.923240 0.039864
v 0.030751 0.940737 0.022384
v 0.020481 0.790055 0.029246
v 0.029942 0.807552 0.052085
v 0.036555 0.834091 0.068053
v 0.038878 0.865396 0.073660
v 0.036555 0.896701 0.068053
v 0.029942 0.923240 0.052085
v 0.020481 0.940737 0.029246
v 0.008367 0.790055 0.031655
v 0.008367 0.807552 0.056377
v 0.008367 0.923240 0.056377
v -0.080726 0.360236 0.039226
v -0.083370 0.739099 0.039226
v -0.080726 0.360236 -0.040075
v -0.083370 0.739099 -0.040075
v 0.102437 0.360236 0.039226
v 0.105238 0.739099 0.039226
v 0.102437 0.360236 -0.040075
v 0.105238 0.739099 -0.040075
v -0.087292 0.633221 0.044777
v -0.087292 0.633221 -0.045626
v 0.109018 0.633221 -0.045626
v 0.109018 0.633221 0.044777
v -0.007245 0.367296 -0.045626
v -0.011050 0.739099 -0.040075
v -0.007245 0.367296 0.044777
v -0.011050 0.739099 0.039226
v -0.011050 0.625567 0.059051
v -0.011050 0.625567 -0.059900
v 0.034163 0.739099 -0.040075
v 0.030456 0.367296 0.044777
v 0.034163 0.625567 -0.059900
v 0.030456 0.367296 -0.045626
v 0.034163 0.739099 0.039226
v 0.034163 0.625567 0.059051
v -0.172204 0.625254 0.039226
v -0.166308 0.730479 0.029313
v -0.166308 0.730479 -0.030162
v -0.172204 0.625254 -0.040075
v 0.187374 0.730479 -0.030162
v 0.187374 0.730479 0.029313
v 0.193133 0.625254 -0.040075
v 0.193133 0.625254 0.039226
v -0.072400 0.071398 -0.030162
v -0.072400 0.071398 0.029313
v -0.022441 0.071398 -0.030162
v 0.094285 0.071398 0.029313
v 0.094285 0.071398 -0.030162
v 0.045378 0.071398 0.029313
v -0.022441 0.071398 0.029313
v 0.045378 0.071398 -0.030162
v -0.119827 0.632995 0.044777
v -0.119827 0.632995 -0.045626
v -0.122389 0.739099 -0.040075
v -0.122389 0.739099 0.039226
v 0.144263 0.739099 0.039226
v 0.144263 0.739099 -0.040075
v 0.141823 0.632995 -0.045626
v 0.141823 0.632995 0.044777
v -0.166308 0.450905 0.029313
v -0.166308 0.450905 -0.030162
v -0.130928 0.450905 0.029313
v 0.187374 0.450905 -0.030162
v 0.187374 0.450905 0.029313
v 0.152823 0.450905 -0.030162
v -0.130928 0.450905 -0.030162
v 0.152823 0.450905 0.029313
v 0.008367 0.849438 0.078192
v 0.008367 0.881354 0.078192
v -0.008637 0.797412 0.041053
v -0.017000 0.819951 0.061242
v -0.021555 0.849438 0.072240
v -0.021555 0.881354 0.072240
v -0.017000 0.910841 0.061242
v -0.008637 0.933380 0.041053
v 0.002133 0.940677 0.031342
v -0.006002 0.896701 0.072240
v -0.007186 0.865396 0.078192
v -0.006002 0.834091 0.072240
v -0.023053 0.797412 0.031420
v -0.038505 0.819951 0.046872
v -0.046923 0.849438 0.055290
v -0.046923 0.881354 0.055290
v -0.038505 0.910841 0.046872
v -0.023053 0.933380 0.031420
v -0.032553 0.834091 0.061242
v -0.022952 0.807552 0.046872
v -0.009387 0.790114 0.026571
v -0.009387 0.940677 0.026571
v -0.022952 0.923240 0.046872
v -0.032553 0.896701 0.061242
v -0.035925 0.865396 0.066288
v -0.032685 0.797412 0.017005
v -0.052875 0.819951 0.025367
v -0.063873 0.849438 0.029923
v -0.063873 0.881354 0.029923
v -0.052875 0.910841 0.025367
v -0.032685 0.933380 0.017005
v -0.018203 0.940677 0.017754
v -0.038505 0.923240 0.031319
v -0.052875 0.896701 0.040920
v -0.057921 0.865396 0.044292
v -0.052875 0.834091 0.040920
v -0.038505 0.807552 0.031319
v -0.018203 0.790114 0.017754
v -0.036068 0.797412 0.000000
v -0.057921 0.819951 0.000000
v -0.069824 0.849438 -0.000000
v -0.069824 0.881354 -0.000000
v -0.057921 0.910841 0.000000
v -0.036068 0.933380 0.000000
v -0.046923 0.807552 0.010998
v -0.022975 0.790114 0.006234
v -0.022975 0.940677 0.006234
v -0.046923 0.923240 0.010998
v -0.063872 0.896701 0.014369
v -0.069824 0.865396 0.015553
v -0.063873 0.834091 0.014369
v -0.032685 0.797412 -0.017005
v -0.052875 0.819951 -0.025367
v -0.063872 0.849438 -0.029923
v -0.063872 0.881354 -0.029923
v -0.052875 0.910841 -0.025367
v -0.032685 0.933380 -0.017005
v -0.022975 0.940677 -0.006234
v -0.046923 0.923240 -0.010998
v -0.063872 0.896701 -0.014369
v -0.069824 0.865396 -0.015553
v -0.063872 0.834091 -0.014369
v -0.046923 0.807552 -0.010998
v -0.022975 0.790114 -0.006234
v -0.023053 0.797412 -0.031420
v -0.038505 0.819951 -0.046872
v -0.046923 0.849438 -0.055290
v -0.046923 0.881354 -0.055290
v -0.038505 0.910841 -0.046872
v -0.023053 0.933380 -0.031420
v -0.018203 0.790114 -0.017754
v -0.018203 0.940677 -0.017754
v -0.038505 0.923240 -0.031319
v -0.052875 0.896701 -0.040921
v -0.057921 0.865396 -0.044292
v -0.052875 0.834091 -0.040921
v -0.038505 0.807552 -0.031319
v -0.008637 0.797412 -0.041053
v -0.017000 0.819951 -0.061242
v -0.021555 0.849438 -0.072240
v -0.021555 0.881354 -0.072240
v -0.017000 0.910841 -0.061242
v -0.008637 0.933380 -0.041053
v -0.022952 0.923240 -0.046872
v -0.032553 0.896701 -0.061242
v -0.035925 0.865396 -0.066288
v -0.032553 0.834091 -0.061242
v -0.022952 0.807552 -0.046872
v -0.009387 0.790114 -0.026571
v -0.009387 0.940677 -0.026571
v 0.008367 0.797412 -0.044435
v 0.008367 0.819951 -0.066288
v 0.008367 0.849438 -0.078192
v 0.008367 0.881354 -0.078192
v 0.008367 0.910841 -0.066288
v 0.008367 0.933380 -0.044435
v 0.008367 0.945106 -0.018926
v 0.002133 0.940677 -0.031342
v -0.002631 0.923240 -0.055290
v -0.006002 0.896701 -0.072240
v -0.007186 0.865396 -0.078192
v -0.006002 0.834091 -0.072240
v -0.002631 0.807552 -0.055290
v 0.002133 0.790114 -0.031342
v 0.015610 0.785686 -0.017485
v 0.025372 0.797412 -0.041053
v 0.033734 0.819951 -0.061242
v 0.038290 0.849438 -0.072240
v 0.038290 0.881354 -0.072240
v 0.033734 0.910841 -0.061242
v 0.025372 0.933380 -0.041053
v 0.022737 0.896701 -0.072240
v 0.023920 0.865396 -0.078192
v 0.022737 0.834091 -0.072240
v 0.019365 0.807552 -0.055290
v 0.014602 0.790114 -0.031342
v 0.014602 0.940677 -0.031342
v 0.019365 0.923240 -0.055290
v 0.039788 0.797412 -0.031420
v 0.055240 0.819951 -0.046872
v 0.063657 0.849438 -0.055290
v 0.063657 0.881354 -0.055290
v 0.055240 0.910841 -0.046872
v 0.039788 0.933380 -0.031420
v 0.026121 0.940677 -0.026571
v 0.039686 0.923240 -0.046872
v 0.049288 0.896701 -0.061242
v 0.052659 0.865396 -0.066288
v 0.049288 0.834091 -0.061242
v 0.039686 0.807552 -0.046872
v 0.026121 0.790114 -0.026571
v 0.049420 0.797412 -0.017005
v 0.069609 0.819951 -0.025367
v 0.080607 0.849438 -0.029923
v 0.080607 0.881354 -0.029923
v 0.069609 0.910841 -0.025367
v 0.049420 0.933380 -0.017005
v 0.074655 0.865396 -0.044292
v 0.069609 0.834091 -0.040920
v 0.055240 0.807552 -0.031319
v 0.034938 0.790114 -0.017754
v 0.034938 0.940677 -0.017754
v 0.055240 0.923240 -0.031319
v 0.069609 0.896701 -0.040920
v 0.052802 0.797412 0.000000
v 0.074655 0.819951 0.000000
v 0.086559 0.849438 0.000000
v 0.086559 0.881354 0.000000
v 0.074655 0.910841 0.000000
v 0.052802 0.933380 0.000000
v 0.039709 0.940677 -0.006234
v 0.063657 0.923240 -0.010998
v 0.080607 0.896701 -0.014369
v 0.086559 0.865396 -0.015553
v 0.080607 0.834091 -0.014369
v 0.063657 0.807552 -0.010998
v 0.039709 0.790114 -0.006234
v 0.049420 0.797412 0.017005
v 0.069609 0.819951 0.025367
v 0.080607 0.849438 0.029923
v 0.080607 0.881354 0.029923
v 0.069609 0.910841 0.025367
v 0.049420 0.933380 0.017005
v 0.080607 0.834091 0.014369
v 0.063657 0.807552 0.010998
v 0.039709 0.790114 0.006234
v 0.039709 0.940677 0.006234
v 0.063657 0.923240 0.010998
v 0.080607 0.896701 0.014369
v 0.086559 0.865396 0.015553
v 0.039787 0.797412 0.031420
v 0.055240 0.819951 0.046872
v 0.063657 0.849438 0.055290
v 0.063657 0.881354 0.055290
v 0.055240 0.910841 0.046872
v 0.039787 0.933380 0.031420
v 0.034938 0.940677 0.017754
v 0.055240 0.923240 0.031319
v 0.069609 0.896701 0.040920
v 0.074655 0.865396 0.044292
v 0.069609 0.834091 0.040921
v 0.055240 0.807552 0.031319
v 0.034938 0.790114 0.017754
v 0.025372 0.797412 0.041053
v 0.033734 0.819951 0.061242
v 0.038290 0.849438 0.072240
v 0.038290 0.881354 0.072240
v 0.033734 0.910841 0.061242
v 0.025372 0.933380 0.041053
v 0.039686 0.807552 0.046872
v 0.026121 0.790114 0.026571
v 0.026121 0.940677 0.026571
v 0.039686 0.923240 0.046872
v 0.049288 0.896701 0.061242
v 0.052659 0.865396 0.066288
v 0.049288 0.834091 0.061242
v 0.008367 0.797412 0.044435
v 0.019365 0.923240 0.055290
v 0.019365 0.807552 0.055290
v 0.014602 0.790114 0.031342
v 0.008367 0.785686 0.018926
v 0.008367 0.819951 0.066288
v 0.008367 0.910841 0.066288
v 0.008367 0.933380 0.044435
v 0.008367 0.945106 0.018926
v 0.001125 0.785686 0.017485
v 0.001125 0.945106 0.017485
v -0.002631 0.923240 0.055290
v -0.002631 0.807552 0.055290
v 0.002133 0.790114 0.031342
v -0.005015 0.785686 0.013383
v -0.005015 0.945106 0.013383
v -0.009118 0.785686 0.007243
v -0.009118 0.945106 0.007243
v -0.010559 0.785686 0.000000
v -0.010559 0.945106 0.000000
v -0.009118 0.785686 -0.007243
v -0.009118 0.945106 -0.007243
v -0.005015 0.785686 -0.013383
v -0.005015 0.945106 -0.013383
v 0.001125 0.785686 -0.017485
v 0.001125 0.945106 -0.017485
v 0.008367 0.785686 -0.018926
v 0.015610 0.945106 -0.017485
v 0.021750 0.785686 -0.013383
v 0.021750 0.945106 -0.013383
v 0.025852 0.785686 -0.007243
v 0.025852 0.945106 -0.007243
v 0.027293 0.785686 0.000000
v 0.027293 0.945106 0.000000
v 0.025852 0.785686 0.007243
v 0.025852 0.945106 0.007243
v 0.021750 0.785686 0.013383
v 0.021750 0.945106 0.013383
v 0.015610 0.785686 0.017485
v 0.015610 0.945106 0.017485
v 0.014602 0.940677 0.031342
v 0.022737 0.896701 0.072240
v 0.023920 0.865396 0.078192
v 0.022737 0.834091 0.072240
v -0.093216 0.360236 -0.000425
v -0.083790 0.700797 0.055102
v -0.083370 0.752028 -0.000425
v -0.081422 0.513069 -0.040670
v -0.046694 0.360993 -0.055952
v 0.069799 0.739099 -0.040075
v 0.103134 0.513069 -0.040670
v 0.114663 0.360236 -0.000425
v 0.105238 0.752028 -0.000425
v 0.103134 0.513069 0.039820
v 0.069116 0.360993 0.055102
v -0.047368 0.739099 0.039226
v -0.081422 0.513069 0.039820
v -0.083790 0.700797 -0.055952
v 0.105643 0.700797 -0.055952
v 0.105643 0.700797 0.055102
v -0.047733 0.626387 0.057580
v 0.118954 0.613559 -0.000425
v 0.070146 0.626387 -0.058430
v -0.097394 0.613559 -0.000425
v 0.011706 0.416999 -0.041265
v -0.047368 0.739099 -0.040075
v -0.046694 0.360993 0.055102
v 0.011688 0.739099 0.039226
v 0.011688 0.625567 0.059051
v -0.047733 0.626387 -0.058430
v -0.010642 0.514818 -0.058430
v -0.010642 0.514818 0.057580
v -0.011050 0.752028 -0.000425
v 0.002949 0.326460 -0.000425
v -0.011050 0.699048 0.056573
v -0.011050 0.699048 -0.057422
v 0.011688 0.739099 -0.040075
v 0.011706 0.416999 0.040415
v 0.011688 0.625567 -0.059900
v 0.069116 0.360993 -0.055952
v 0.069799 0.739099 0.039226
v 0.070146 0.626387 0.057580
v 0.034163 0.699048 0.056573
v 0.034163 0.752028 -0.000425
v 0.033766 0.514818 0.057580
v 0.033766 0.514818 -0.058430
v 0.020462 0.326461 -0.000425
v 0.034163 0.699048 -0.057422
v -0.171194 0.697892 0.037528
v -0.170184 0.736146 -0.000425
v -0.171194 0.697892 -0.038377
v -0.181049 0.625254 -0.000425
v -0.148068 0.626083 0.055102
v -0.104949 0.662472 -0.041265
v -0.147523 0.737622 -0.038377
v -0.104702 0.739099 0.039226
v 0.191160 0.736146 -0.000425
v 0.192146 0.697892 -0.038377
v 0.192146 0.697892 0.037528
v 0.201771 0.625254 -0.000425
v 0.169002 0.737622 0.037528
v 0.126545 0.739099 -0.040075
v 0.169546 0.626083 -0.055952
v 0.126789 0.662472 0.040415
v -0.077874 0.048459 -0.000425
v -0.047420 0.048458 -0.036679
v 0.099644 0.048459 -0.000425
v 0.069832 0.048459 0.035830
v -0.047420 0.048459 0.035830
v -0.016967 0.048459 -0.000425
v 0.069832 0.048458 -0.036679
v 0.040020 0.048459 -0.000425
v -0.014814 0.186005 -0.038972
v -0.079300 0.186178 -0.038377
v 0.101040 0.186178 -0.038377
v 0.037907 0.186005 -0.038972
v -0.079300 0.186178 0.037528
v -0.014814 0.186005 0.038122
v 0.037907 0.186005 0.038122
v 0.101040 0.186178 0.037528
v -0.104949 0.662472 0.040415
v -0.148068 0.626083 -0.055952
v -0.104702 0.739099 -0.040075
v -0.147523 0.737622 0.037528
v -0.122114 0.700774 0.055102
v -0.122114 0.700774 -0.055952
v -0.122389 0.752028 -0.000425
v -0.112503 0.613265 -0.000425
v 0.126545 0.739099 0.039226
v 0.169002 0.737622 -0.038377
v 0.126789 0.662472 -0.041265
v 0.169546 0.626083 0.055102
v 0.144002 0.700774 -0.055952
v 0.144002 0.700774 0.055102
v 0.134623 0.613265 -0.000425
v 0.144263 0.752028 -0.000425
v -0.170184 0.436150 -0.000425
v -0.148618 0.436150 0.035830
v 0.191160 0.436150 -0.000425
v 0.170099 0.436150 -0.036679
v -0.148618 0.436150 -0.036679
v -0.127052 0.436150 -0.000425
v 0.170099 0.436150 0.035830
v 0.149038 0.436150 -0.000425
v -0.125492 0.523772 0.038122
v -0.125492 0.523772 -0.038972
v -0.171194 0.523302 0.037528
v 0.147498 0.523772 -0.038972
v 0.147498 0.523772 0.038122
v -0.171194 0.523302 -0.038377
v 0.192146 0.523302 0.037528
v 0.192146 0.523302 -0.038377
v -0.000309 0.933372 0.043616
v -0.006886 0.881354 0.076684
v -0.004564 0.819951 0.065010
v 0.004111 0.786351 0.021397
v 0.004111 0.944441 0.021397
v -0.004564 0.910841 0.065010
v -0.006886 0.849438 0.076684
v -0.000309 0.797419 0.043616
v -0.028458 0.819951 0.055113
v -0.003753 0.786351 0.018140
v -0.003753 0.944441 0.018140
v -0.028458 0.910841 0.055113
v -0.035071 0.849438 0.065010
v -0.016339 0.797419 0.036976
v -0.016339 0.933372 0.036976
v -0.035071 0.881354 0.065010
v -0.009772 0.944441 0.012121
v -0.046745 0.910841 0.036825
v -0.056643 0.849438 0.043438
v -0.028608 0.797419 0.024706
v -0.028608 0.933372 0.024706
v -0.056643 0.881354 0.043438
v -0.046745 0.819951 0.036825
v -0.009772 0.786351 0.012121
v -0.035248 0.797419 0.008676
v -0.035248 0.933372 0.008676
v -0.068317 0.881354 0.015253
v -0.056643 0.819951 0.012931
v -0.013030 0.786351 0.004256
v -0.013030 0.944441 0.004256
v -0.056643 0.910841 0.012931
v -0.068317 0.849438 0.015253
v -0.035248 0.933372 -0.008676
v -0.068317 0.881354 -0.015253
v -0.056643 0.819951 -0.012931
v -0.013030 0.786351 -0.004256
v -0.013030 0.944441 -0.004256
v -0.056643 0.910841 -0.012931
v -0.068317 0.849438 -0.015253
v -0.035248 0.797419 -0.008676
v -0.009772 0.786351 -0.012121
v -0.009772 0.944441 -0.012121
v -0.046745 0.910841 -0.036825
v -0.056643 0.849438 -0.043438
v -0.028608 0.797419 -0.024706
v -0.028608 0.933372 -0.024706
v -0.056643 0.881354 -0.043438
v -0.046745 0.819951 -0.036825
v -0.028458 0.910841 -0.055113
v -0.035071 0.849438 -0.065010
v -0.016339 0.797419 -0.036976
v -0.016339 0.933372 -0.036976
v -0.035071 0.881354 -0.065010
v -0.028458 0.819951 -0.055113
v -0.003753 0.786351 -0.018140
v -0.003753 0.944441 -0.018140
v -0.000308 0.933372 -0.043616
v -0.006886 0.881354 -0.076684
v -0.004564 0.819951 -0.065010
v 0.004111 0.786351 -0.021397
v 0.004111 0.944441 -0.021397
v -0.004564 0.910841 -0.065010
v -0.006886 0.849438 -0.076684
v -0.000308 0.797419 -0.043616
v 0.023621 0.881354 -0.076684
v 0.021298 0.819951 -0.065010
v 0.012623 0.786351 -0.021397
v 0.012623 0.944441 -0.021397
v 0.021298 0.910841 -0.065010
v 0.023621 0.849438 -0.076684
v 0.017043 0.797419 -0.043616
v 0.017043 0.933372 -0.043616
v 0.020488 0.944441 -0.018140
v 0.045192 0.910841 -0.055113
v 0.051805 0.849438 -0.065010
v 0.033073 0.797419 -0.036976
v 0.033073 0.933372 -0.036976
v 0.051805 0.881354 -0.065010
v 0.045192 0.819951 -0.055113
v 0.020488 0.786351 -0.018140
v 0.073377 0.849438 -0.043438
v 0.045343 0.797419 -0.024706
v 0.045343 0.933372 -0.024706
v 0.073377 0.881354 -0.043438
v 0.063480 0.819951 -0.036825
v 0.026507 0.786351 -0.012121
v 0.026507 0.944441 -0.012121
v 0.063480 0.910841 -0.036825
v 0.051983 0.933372 -0.008676
v 0.085051 0.881354 -0.015253
v 0.073377 0.819951 -0.012931
v 0.029764 0.786351 -0.004256
v 0.029764 0.944441 -0.004256
v 0.073377 0.910841 -0.012931
v 0.085051 0.849438 -0.015253
v 0.051983 0.797419 -0.008676
v 0.073377 0.819951 0.012931
v 0.029764 0.786351 0.004256
v 0.029764 0.944441 0.004256
v 0.073377 0.910841 0.012931
v 0.085051 0.849438 0.015253
v 0.051983 0.797419 0.008676
v 0.051983 0.933372 0.008676
v 0.085051 0.881354 0.015253
v 0.026507 0.944441 0.012121
v 0.063480 0.910841 0.036825
v 0.073377 0.849438 0.043438
v 0.045343 0.797419 0.024706
v 0.045343 0.933372 0.024706
v 0.073377 0.881354 0.043438
v 0.063480 0.819951 0.036825
v 0.026507 0.786351 0.012121
v 0.033073 0.797419 0.036976
v 0.033073 0.933372 0.036976
v 0.051805 0.881354 0.065010
v 0.045192 0.819951 0.055113
v 0.020488 0.786351 0.018140
v 0.020488 0.944441 0.018140
v 0.045192 0.910841 0.055113
v 0.051805 0.849438 0.065010
v 0.017043 0.933372 0.043616
v 0.023621 0.881354 0.076684
v 0.021298 0.819951 0.065010
v 0.012623 0.786351 0.021397
v 0.012623 0.944441 0.021397
v 0.021298 0.910841 0.065010
v 0.023621 0.849438 0.076684
v 0.017043 0.797419 0.043616
v -0.148494 0.522055 0.051949
v 0.069900 0.699253 -0.057158
v 0.169375 0.750033 -0.000425
v -0.047473 0.699253 0.056308
v 0.069669 0.184105 -0.052798
v -0.047368 0.752028 -0.000425
v -0.047096 0.513002 0.056457
v 0.115216 0.511581 -0.000425
v 0.069509 0.513002 -0.057306
v -0.093757 0.511581 -0.000425
v -0.047096 0.513002 -0.057306
v 0.011690 0.518802 0.056870
v 0.011688 0.752028 -0.000425
v -0.047255 0.184105 -0.052798
v 0.011688 0.699048 0.056573
v -0.047473 0.699253 -0.057158
v 0.069900 0.699253 0.056308
v 0.069799 0.752028 -0.000425
v 0.069509 0.513002 0.056457
v 0.011690 0.518802 -0.057719
v 0.011722 0.379903 -0.000425
v 0.011688 0.699048 -0.057422
v -0.179684 0.698451 -0.000425
v -0.147905 0.750033 -0.000425
v -0.148028 0.698937 -0.054771
v -0.148028 0.698937 0.053922
v 0.200438 0.698451 -0.000425
v -0.117084 0.520825 -0.000425
v 0.169497 0.698937 0.053922
v 0.169497 0.698937 -0.054771
v 0.069832 0.000317 -0.000425
v -0.047420 0.000317 -0.000425
v -0.047255 0.184105 0.051949
v -0.091289 0.183916 -0.000425
v 0.026305 0.180580 -0.000425
v -0.002965 0.180580 -0.000425
v 0.112777 0.183916 -0.000425
v 0.069669 0.184105 0.051949
v -0.104738 0.703169 0.054392
v -0.104738 0.703169 -0.055241
v -0.104702 0.752028 -0.000425
v -0.105179 0.646854 -0.000425
v 0.126581 0.703169 -0.055241
v 0.126581 0.703169 0.054392
v 0.127016 0.646854 -0.000425
v 0.126545 0.752028 -0.000425
v -0.148618 0.405185 -0.000425
v 0.170099 0.405185 -0.000425
v 0.139279 0.520825 -0.000425
v -0.148494 0.522055 -0.052798
v 0.200438 0.521847 -0.000425
v -0.179684 0.521847 -0.000425
v 0.169975 0.522055 -0.052798
v 0.169975 0.522055 0.051949
v 0.000000 0.523008 -0.216621
v -0.015607 0.524546 -0.216621
v -0.030615 0.529098 -0.216621
v -0.044446 0.536491 -0.216621
v -0.056569 0.546440 -0.216621
v -0.066518 0.558563 -0.216621
v -0.073910 0.572394 -0.216621
v -0.078463 0.587401 -0.216621
v -0.080000 0.603008 -0.216621
v -0.078463 0.618616 -0.216621
v -0.073910 0.633623 -0.216621
v -0.066518 0.647454 -0.216621
v -0.056569 0.659577 -0.216621
v -0.044446 0.669526 -0.216621
v -0.030615 0.676919 -0.216621
v -0.015607 0.681471 -0.216621
v 0.000000 0.683008 -0.216621
v 0.015607 0.681471 -0.216621
v 0.030615 0.676919 -0.216621
v 0.044446 0.669526 -0.216621
v 0.056569 0.659577 -0.216621
v 0.066518 0.647454 -0.216621
v 0.073910 0.633623 -0.216621
v 0.078463 0.618616 -0.216621
v 0.080000 0.603008 -0.216621
v 0.078463 0.587401 -0.216621
v 0.073910 0.572394 -0.216621
v 0.066518 0.558563 -0.216621
v 0.056569 0.546440 -0.216621
v 0.044446 0.536491 -0.216621
v 0.030615 0.529098 -0.216621
v 0.015607 0.524546 -0.216621
v 0.000000 0.603008 -0.306221
vn 0.0980 -0.9952 -0.0000
vn 0.2903 -0.9569 -0.0000
vn 0.4714 -0.8819 -0.0000
vn 0.6344 -0.7730 -0.0000
vn 0.7730 -0.6344 -0.0000
vn 0.8819 -0.4714 -0.0000
vn 0.9569 -0.2903 -0.0000
vn 0.9952 -0.0980 -0.0000
vn 0.9952 0.0980 -0.0000
vn 0.9569 0.2903 -0.0000
vn 0.8819 0.4714 -0.0000
vn 0.7730 0.6344 -0.0000
vn 0.6344 0.7730 -0.0000
vn 0.4714 0.8819 -0.0000
vn 0.2903 0.9569 -0.0000
vn 0.0980 0.9952 -0.0000
vn -0.0980 0.9952 -0.0000
vn -0.2903 0.9569 -0.0000
vn -0.4714 0.8819 -0.0000
vn -0.6344 0.7730 -0.0000
vn -0.7730 0.6344 -0.0000
vn -0.8819 0.4714 -0.0000
vn -0.9569 0.2903 -0.0000
vn -0.9952 0.0980 -0.0000
vn -0.9952 -0.0980 -0.0000
vn -0.9569 -0.2903 -0.0000
vn -0.8819 -0.4714 -0.0000
vn -0.7730 -0.6344 -0.0000
vn -0.6344 -0.7730 -0.0000
vn -0.4714 -0.8819 -0.0000
vn -0.0000 -0.0000 -1.0000
vn -0.2903 -0.9569 -0.0000
vn -0.0980 -0.9952 -0.0000
vn -0.0000 -0.0000 1.0000
vn 0.0420 -0.8641 -0.5016
vn 0.0629 -0.7603 -0.6465
vn 0.1893 -0.7603 -0.6213
vn 0.1532 -0.8641 -0.4795
vn 0.0944 -0.2819 -0.9548
vn 0.0979 -0.0954 -0.9906
vn 0.2886 -0.0954 -0.9527
vn 0.2782 -0.2819 -0.9182
vn 0.0873 0.4605 -0.8833
vn 0.0770 0.6225 -0.7788
vn 0.2269 0.6225 -0.7490
vn 0.2574 0.4605 -0.8495
vn -0.0046 0.9411 -0.3380
vn 0.0306 0.9876 -0.1540
vn 0.1336 0.9412 -0.3105
vn 0.0306 -0.9876 -0.1540
vn -0.0046 -0.9411 -0.3380
vn 0.1336 -0.9412 -0.3105
vn 0.0770 -0.6225 -0.7788
vn 0.0873 -0.4605 -0.8833
vn 0.2574 -0.4605 -0.8495
vn 0.2269 -0.6225 -0.7490
vn 0.0979 0.0954 -0.9906
vn 0.0944 0.2819 -0.9548
vn 0.2782 0.2819 -0.9182
vn 0.2886 0.0954 -0.9527
vn 0.0629 0.7603 -0.6465
vn 0.0420 0.8641 -0.5016
vn 0.1532 0.8641 -0.4795
vn 0.1893 0.7603 -0.6213
vn 0.4187 0.4605 -0.7827
vn 0.3691 0.6225 -0.6901
vn 0.4963 0.6225 -0.6051
vn 0.5629 0.4605 -0.6863
vn 0.1251 0.9411 -0.3140
vn 0.0872 0.9876 -0.1306
vn 0.2422 0.9411 -0.2357
vn 0.0872 -0.9876 -0.1306
vn 0.1251 -0.9412 -0.3140
vn 0.2422 -0.9412 -0.2357
vn 0.3691 -0.6225 -0.6901
vn 0.4187 -0.4605 -0.7827
vn 0.5629 -0.4605 -0.6863
vn 0.4963 -0.6225 -0.6051
vn 0.4695 0.0954 -0.8777
vn 0.4525 0.2819 -0.8460
vn 0.6084 0.2819 -0.7418
vn 0.6312 0.0954 -0.7697
vn 0.3055 0.7603 -0.5732
vn 0.2307 0.8641 -0.4474
vn 0.3250 0.8641 -0.3843
vn 0.4126 0.7603 -0.5016
vn 0.2307 -0.8641 -0.4474
vn 0.3055 -0.7603 -0.5732
vn 0.4126 -0.7603 -0.5016
vn 0.3250 -0.8641 -0.3843
vn 0.4525 -0.2819 -0.8460
vn 0.4695 -0.0954 -0.8777
vn 0.6312 -0.0954 -0.7697
vn 0.6084 -0.2819 -0.7418
vn 0.1306 -0.9876 -0.0872
vn 0.2357 -0.9411 -0.2422
vn 0.3140 -0.9412 -0.1251
vn 0.6051 -0.6225 -0.4963
vn 0.6863 -0.4605 -0.5629
vn 0.7827 -0.4605 -0.4187
vn 0.6901 -0.6225 -0.3691
vn 0.7697 0.0954 -0.6312
vn 0.7418 0.2819 -0.6084
vn 0.8460 0.2819 -0.4525
vn 0.8777 0.0954 -0.4695
vn 0.5016 0.7603 -0.4126
vn 0.3844 0.8641 -0.3250
vn 0.4474 0.8641 -0.2307
vn 0.5732 0.7603 -0.3055
vn 0.3844 -0.8641 -0.3250
vn 0.5016 -0.7603 -0.4126
vn 0.5732 -0.7603 -0.3055
vn 0.4474 -0.8641 -0.2307
vn 0.7418 -0.2819 -0.6084
vn 0.7697 -0.0954 -0.6312
vn 0.8777 -0.0954 -0.4695
vn 0.8460 -0.2819 -0.4525
vn 0.6863 0.4605 -0.5629
vn 0.6051 0.6225 -0.4963
vn 0.6901 0.6225 -0.3691
vn 0.7827 0.4605 -0.4187
vn 0.2357 0.9412 -0.2422
vn 0.1306 0.9876 -0.0872
vn 0.3140 0.9411 -0.1251
vn 0.6213 0.7603 -0.1893
vn 0.4795 0.8641 -0.1532
vn 0.5016 0.8641 -0.0420
vn 0.6465 0.7603 -0.0629
vn 0.4795 -0.8641 -0.1532
vn 0.6213 -0.7603 -0.1893
vn 0.6465 -0.7603 -0.0629
vn 0.5016 -0.8641 -0.0420
vn 0.9182 -0.2819 -0.2782
vn 0.9527 -0.0954 -0.2886
vn 0.9906 -0.0954 -0.0979
vn 0.9548 -0.2819 -0.0944
vn 0.8495 0.4605 -0.2574
vn 0.7490 0.6225 -0.2269
vn 0.7788 0.6225 -0.0770
vn 0.8833 0.4605 -0.0873
vn 0.3105 0.9412 -0.1336
vn 0.1540 0.9876 -0.0306
vn 0.3380 0.9412 0.0046
vn 0.1540 -0.9876 -0.0306
vn 0.3105 -0.9411 -0.1336
vn 0.3380 -0.9412 0.0046
vn 0.7490 -0.6225 -0.2269
vn 0.8495 -0.4605 -0.2574
vn 0.8833 -0.4605 -0.0873
vn 0.7788 -0.6225 -0.0770
vn 0.9527 0.0954 -0.2886
vn 0.9182 0.2819 -0.2782
vn 0.9548 0.2819 -0.0944
vn 0.9906 0.0954 -0.0979
vn 0.5016 -0.8641 0.0420
vn 0.6465 -0.7603 0.0629
vn 0.6213 -0.7603 0.1893
vn 0.4795 -0.8641 0.1532
vn 0.9548 -0.2819 0.0944
vn 0.9906 -0.0954 0.0979
vn 0.9527 -0.0954 0.2886
vn 0.9182 -0.2819 0.2782
vn 0.8833 0.4605 0.0873
vn 0.7788 0.6225 0.0770
vn 0.7490 0.6225 0.2269
vn 0.8495 0.4605 0.2574
vn 0.3380 0.9412 -0.0046
vn 0.1540 0.9876 0.0306
vn 0.3105 0.9412 0.1336
vn 0.1540 -0.9876 0.0306
vn 0.3380 -0.9412 -0.0046
vn 0.3105 -0.9411 0.1336
vn 0.7788 -0.6225 0.0770
vn 0.8833 -0.4605 0.0873
vn 0.8495 -0.4605 0.2574
vn 0.7490 -0.6225 0.2269
vn 0.9906 0.0954 0.0979
vn 0.9548 0.2819 0.0944
vn 0.9182 0.2819 0.2782
vn 0.9527 0.0954 0.2886
vn 0.6465 0.7603 0.0629
vn 0.5016 0.8641 0.0420
vn 0.4795 0.8641 0.1532
vn 0.6213 0.7603 0.1893
vn 0.3140 0.9411 0.1251
vn 0.1306 0.9876 0.0872
vn 0.2357 0.9412 0.2422
vn 0.1306 -0.9876 0.0872
vn 0.3140 -0.9412 0.1251
vn 0.2357 -0.9411 0.2422
vn 0.6901 -0.6225 0.3691
vn 0.7827 -0.4605 0.4187
vn 0.6863 -0.4605 0.5629
vn 0.6051 -0.6225 0.4963
vn 0.8777 0.0954 0.4695
vn 0.8460 0.2819 0.4525
vn 0.7418 0.2819 0.6084
vn 0.7697 0.0954 0.6312
vn 0.5732 0.7603 0.3055
vn 0.4474 0.8641 0.2307
vn 0.3843 0.8641 0.3250
vn 0.5016 0.7603 0.4126
vn 0.4474 -0.8641 0.2307
vn 0.5732 -0.7603 0.3055
vn 0.5016 -0.7603 0.4126
vn 0.3844 -0.8641 0.3250
vn 0.8460 -0.2819 0.4525
vn 0.8777 -0.0954 0.4695
vn 0.7697 -0.0954 0.6312
vn 0.7418 -0.2819 0.6084
vn 0.7827 0.4605 0.4187
vn 0.6901 0.6225 0.3691
vn 0.6051 0.6225 0.4963
vn 0.6863 0.4605 0.5629
vn 0.4963 -0.6225 0.6051
vn 0.5629 -0.4605 0.6863
vn 0.4187 -0.4605 0.7827
vn 0.3691 -0.6225 0.6901
vn 0.6312 0.0954 0.7697
vn 0.6084 0.2819 0.7418
vn 0.4525 0.2819 0.8460
vn 0.4695 0.0954 0.8777
vn 0.4126 0.7603 0.5016
vn 0.3250 0.8641 0.3843
vn 0.2307 0.8641 0.4474
vn 0.3055 0.7603 0.5732
vn 0.3250 -0.8641 0.3843
vn 0.4126 -0.7603 0.5016
vn 0.3055 -0.7603 0.5732
vn 0.2307 -0.8641 0.4474
vn 0.6084 -0.2819 0.7418
vn 0.6312 -0.0954 0.7697
vn 0.4695 -0.0954 0.8777
vn 0.4525 -0.2819 0.8460
vn 0.5629 0.4605 0.6863
vn 0.4963 0.6225 0.6051
vn 0.3691 0.6225 0.6901
vn 0.4187 0.4605 0.7827
vn 0.2422 0.9412 0.2357
vn 0.0872 0.9876 0.1306
vn 0.1251 0.9412 0.3140
vn 0.0872 -0.9876 0.1306
vn 0.2422 -0.9412 0.2357
vn 0.1251 -0.9412 0.3140
vn 0.1532 -0.8641 0.4795
vn 0.1893 -0.7603 0.6213
vn 0.0629 -0.7603 0.6465
vn 0.0420 -0.8641 0.5016
vn 0.2782 -0.2819 0.9182
vn 0.2886 -0.0954 0.9527
vn 0.0979 -0.0954 0.9906
vn 0.0944 -0.2819 0.9548
vn 0.2574 0.4605 0.8495
vn 0.2269 0.6225 0.7490
vn 0.0770 0.6225 0.7788
vn 0.0873 0.4605 0.8833
vn 0.1336 0.9411 0.3105
vn 0.0306 0.9876 0.1540
vn -0.0046 0.9412 0.3380
vn 0.0306 -0.9876 0.1540
vn 0.1336 -0.9412 0.3105
vn -0.0046 -0.9411 0.3380
vn 0.2269 -0.6225 0.7490
vn 0.2574 -0.4605 0.8495
vn 0.0873 -0.4605 0.8833
vn 0.0770 -0.6225 0.7788
vn 0.2886 0.0954 0.9527
vn 0.2782 0.2819 0.9182
vn 0.0944 0.2819 0.9548
vn 0.0979 0.0954 0.9906
vn 0.1893 0.7603 0.6213
vn 0.1532 0.8641 0.4795
vn 0.0420 0.8641 0.5016
vn 0.0629 0.7603 0.6465
vn -0.0944 -0.2819 0.9548
vn -0.0979 -0.0954 0.9906
vn -0.2886 -0.0954 0.9527
vn -0.2782 -0.2819 0.9182
vn -0.0873 0.4605 0.8833
vn -0.0770 0.6225 0.7788
vn -0.2269 0.6225 0.7490
vn -0.2574 0.4605 0.8495
vn 0.0046 0.9412 0.3380
vn -0.0306 0.9876 0.1540
vn -0.1336 0.9411 0.3105
vn -0.0306 -0.9876 0.1540
vn 0.0046 -0.9411 0.3380
vn -0.1336 -0.9412 0.3105
vn -0.0770 -0.6225 0.7788
vn -0.0873 -0.4605 0.8833
vn -0.2574 -0.4605 0.8495
vn -0.2269 -0.6225 0.7490
vn -0.0979 0.0954 0.9906
vn -0.0944 0.2819 0.9548
vn -0.2782 0.2819 0.9182
vn -0.2886 0.0954 0.9527
vn -0.0629 0.7603 0.6465
vn -0.0420 0.8641 0.5016
vn -0.1532 0.8641 0.4795
vn -0.1893 0.7603 0.6213
vn -0.0420 -0.8641 0.5016
vn -0.0629 -0.7603 0.6465
vn -0.1893 -0.7603 0.6213
vn -0.1532 -0.8641 0.4795
vn -0.0872 -0.9876 0.1306
vn -0.1251 -0.9411 0.3140
vn -0.2422 -0.9412 0.2357
vn -0.3691 -0.6225 0.6901
vn -0.4187 -0.4605 0.7827
vn -0.5629 -0.4605 0.6863
vn -0.4963 -0.6225 0.6051
vn -0.4695 0.0954 0.8777
vn -0.4525 0.2819 0.8460
vn -0.6084 0.2819 0.7418
vn -0.6312 0.0954 0.7697
vn -0.3055 0.7603 0.5732
vn -0.2307 0.8641 0.4474
vn -0.3250 0.8641 0.3843
vn -0.4126 0.7603 0.5016
vn -0.2307 -0.8641 0.4474
vn -0.3055 -0.7603 0.5732
vn -0.4126 -0.7603 0.5016
vn -0.3250 -0.8641 0.3843
vn -0.4525 -0.2819 0.8460
vn -0.4695 -0.0954 0.8777
vn -0.6312 -0.0954 0.7697
vn -0.6084 -0.2819 0.7418
vn -0.4187 0.4605 0.7827
vn -0.3691 0.6225 0.6901
vn -0.4963 0.6225 0.6051
vn -0.5629 0.4605 0.6863
vn -0.1251 0.9411 0.3140
vn -0.0872 0.9876 0.1306
vn -0.2422 0.9411 0.2357
vn -0.7697 0.0954 0.6312
vn -0.7418 0.2819 0.6084
vn -0.8460 0.2819 0.4525
vn -0.8777 0.0954 0.4695
vn -0.5016 0.7603 0.4126
vn -0.3844 0.8641 0.3250
vn -0.4474 0.8641 0.2307
vn -0.5732 0.7603 0.3055
vn -0.3844 -0.8641 0.3250
vn -0.5016 -0.7603 0.4126
vn -0.5732 -0.7603 0.3055
vn -0.4474 -0.8641 0.2307
vn -0.7418 -0.2819 0.6084
vn -0.7697 -0.0954 0.6312
vn -0.8777 -0.0954 0.4695
vn -0.8460 -0.2819 0.4525
vn -0.6863 0.4605 0.5629
vn -0.6051 0.6225 0.4963
vn -0.6901 0.6225 0.3691
vn -0.7827 0.4605 0.4187
vn -0.2357 0.9412 0.2422
vn -0.1306 0.9876 0.0872
vn -0.3140 0.9412 0.1251
vn -0.1306 -0.9876 0.0872
vn -0.2357 -0.9411 0.2422
vn -0.3140 -0.9412 0.1251
vn -0.6051 -0.6225 0.4963
vn -0.6863 -0.4605 0.5629
vn -0.7827 -0.4605 0.4187
vn -0.6901 -0.6225 0.3691
vn -0.4795 -0.8641 0.1532
vn -0.6213 -0.7603 0.1893
vn -0.6465 -0.7603 0.0629
vn -0.5016 -0.8641 0.0420
vn -0.9182 -0.2819 0.2782
vn -0.9527 -0.0954 0.2886
vn -0.9906 -0.0954 0.0979
vn -0.9548 -0.2819 0.0944
vn -0.8495 0.4605 0.2574
vn -0.7490 0.6225 0.2269
vn -0.7788 0.6225 0.0770
vn -0.8833 0.4605 0.0873
vn -0.3105 0.9411 0.1336
vn -0.1540 0.9876 0.0306
vn -0.3380 0.9412 -0.0046
vn -0.1540 -0.9876 0.0306
vn -0.3105 -0.9411 0.1336
vn -0.3380 -0.9412 -0.0046
vn -0.7490 -0.6225 0.2269
vn -0.8495 -0.4605 0.2574
vn -0.8833 -0.4605 0.0873
vn -0.7788 -0.6225 0.0770
vn -0.9527 0.0954 0.2886
vn -0.9182 0.2819 0.2782
vn -0.9548 0.2819 0.0944
vn -0.9906 0.0954 0.0979
vn -0.6213 0.7603 0.1893
vn -0.4795 0.8641 0.1532
vn -0.5016 0.8641 0.0420
vn -0.6465 0.7603 0.0629
vn -0.8833 0.4605 -0.0873
vn -0.7788 0.6225 -0.0770
vn -0.7490 0.6225 -0.2269
vn -0.8495 0.4605 -0.2574
vn -0.3380 0.9411 0.0046
vn -0.1540 0.9876 -0.0306
vn -0.3105 0.9412 -0.1336
vn -0.1540 -0.9876 -0.0306
vn -0.3380 -0.9412 0.0046
vn -0.3105 -0.9412 -0.1336
vn -0.7788 -0.6225 -0.0770
vn -0.8833 -0.4605 -0.0873
vn -0.8495 -0.4605 -0.2574
vn -0.7490 -0.6225 -0.2269
vn -0.9906 0.0954 -0.0979
vn -0.9548 0.2819 -0.0944
vn -0.9182 0.2819 -0.2782
vn -0.9527 0.0954 -0.2887
vn -0.6465 0.7603 -0.0629
vn -0.5016 0.8641 -0.0420
vn -0.4795 0.8641 -0.1532
vn -0.6213 0.7603 -0.1893
vn -0.5016 -0.8641 -0.0420
vn -0.6465 -0.7603 -0.0629
vn -0.6213 -0.7603 -0.1893
vn -0.4795 -0.8641 -0.1532
vn -0.9548 -0.2819 -0.0944
vn -0.9906 -0.0954 -0.0979
vn -0.9527 -0.0954 -0.2887
vn -0.9182 -0.2819 -0.2782
vn -0.1306 -0.9876 -0.0872
vn -0.3140 -0.9412 -0.1251
vn -0.2357 -0.9411 -0.2422
vn -0.6901 -0.6225 -0.3691
vn -0.7827 -0.4605 -0.4187
vn -0.6863 -0.4605 -0.5629
vn -0.6051 -0.6225 -0.4963
vn -0.8777 0.0954 -0.4695
vn -0.8460 0.2819 -0.4525
vn -0.7418 0.2819 -0.6084
vn -0.7697 0.0954 -0.6312
vn -0.5732 0.7603 -0.3055
vn -0.4474 0.8641 -0.2307
vn -0.3843 0.8641 -0.3250
vn -0.5016 0.7603 -0.4126
vn -0.4474 -0.8641 -0.2307
vn -0.5732 -0.7603 -0.3055
vn -0.5016 -0.7603 -0.4126
vn -0.3844 -0.8641 -0.3250
vn -0.8460 -0.2819 -0.4525
vn -0.8777 -0.0954 -0.4695
vn -0.7697 -0.0954 -0.6312
vn -0.7418 -0.2819 -0.6084
vn -0.7827 0.4605 -0.4187
vn -0.6901 0.6225 -0.3691
vn -0.6051 0.6225 -0.4963
vn -0.6863 0.4605 -0.5629
vn -0.3140 0.9412 -0.1251
vn -0.1306 0.9876 -0.0872
vn -0.2357 0.9411 -0.2422
vn -0.4126 0.7603 -0.5016
vn -0.3250 0.8641 -0.3843
vn -0.2307 0.8641 -0.4474
vn -0.3055 0.7603 -0.5732
vn -0.3250 -0.8641 -0.3843
vn -0.4126 -0.7603 -0.5016
vn -0.3055 -0.7603 -0.5732
vn -0.2307 -0.8641 -0.4474
vn -0.6084 -0.2819 -0.7418
vn -0.6312 -0.0954 -0.7697
vn -0.4695 -0.0954 -0.8777
vn -0.4525 -0.2819 -0.8460
vn -0.5629 0.4605 -0.6863
vn -0.4963 0.6225 -0.6051
vn -0.3691 0.6225 -0.6901
vn -0.4187 0.4605 -0.7827
vn -0.2422 0.9411 -0.2357
vn -0.0872 0.9876 -0.1306
vn -0.1251 0.9411 -0.3140
vn -0.0872 -0.9876 -0.1306
vn -0.2422 -0.9412 -0.2357
vn -0.1251 -0.9411 -0.3140
vn -0.4963 -0.6225 -0.6051
vn -0.5629 -0.4605 -0.6863
vn -0.4187 -0.4605 -0.7827
vn -0.3691 -0.6225 -0.6901
vn -0.6312 0.0954 -0.7697
vn -0.6084 0.2819 -0.7418
vn -0.4525 0.2819 -0.8460
vn -0.4695 0.0954 -0.8777
vn -0.1532 -0.8641 -0.4795
vn -0.1893 -0.7603 -0.6213
vn -0.0629 -0.7603 -0.6465
vn -0.0420 -0.8641 -0.5016
vn -0.2782 -0.2819 -0.9182
vn -0.2886 -0.0954 -0.9527
vn -0.0979 -0.0954 -0.9906
vn -0.0944 -0.2819 -0.9548
vn -0.2574 0.4605 -0.8495
vn -0.2269 0.6225 -0.7490
vn -0.0770 0.6225 -0.7788
vn -0.0873 0.4605 -0.8833
vn -0.1336 0.9412 -0.3105
vn -0.0306 0.9876 -0.1540
vn 0.0046 0.9412 -0.3380
vn -0.0306 -0.9876 -0.1540
vn -0.1336 -0.9412 -0.3105
vn 0.0046 -0.9412 -0.3380
vn -0.2269 -0.6225 -0.7490
vn -0.2574 -0.4605 -0.8495
vn -0.0873 -0.4605 -0.8833
vn -0.0770 -0.6225 -0.7788
vn -0.2886 0.0954 -0.9527
vn -0.2782 0.2819 -0.9182
vn -0.0944 0.2819 -0.9548
vn -0.0979 0.0954 -0.9906
vn -0.1893 0.7603 -0.6213
vn -0.1532 0.8641 -0.4795
vn -0.0420 0.8641 -0.5016
vn -0.0629 0.7603 -0.6465
vn 0.4331 -0.0538 0.8997
vn -0.5432 -0.0213 0.8394
vn -0.5003 -0.1462 0.8534
vn 0.4905 -0.1519 0.8581
vn 0.0238 0.0256 -0.9994
vn 0.0023 0.3958 -0.9184
vn 0.0072 0.3886 -0.9214
vn 0.1905 -0.0583 -0.9800
vn 0.0766 0.9477 -0.3098
vn 0.0766 0.9477 0.3098
vn 0.4889 0.8348 0.2530
vn 0.4889 0.8348 -0.2530
vn -0.0234 0.0257 0.9994
vn -0.0022 0.3958 0.9184
vn -0.0071 0.3886 0.9214
vn -0.1875 -0.0582 0.9805
vn -0.3277 -0.0332 -0.9442
vn 0.4243 -0.0135 -0.9054
vn 0.3881 -0.0992 -0.9163
vn -0.3785 -0.1032 -0.9199
vn -0.0000 0.9507 -0.3100
vn -0.0000 0.9507 0.3100
vn 0.1250 -0.0453 0.9911
vn -0.0353 -0.0117 0.9993
vn -0.3727 -0.0345 0.9273
vn -0.4294 -0.0073 0.9031
vn 0.9567 -0.0045 -0.2912
vn 0.9644 -0.0476 -0.2603
vn 0.9644 -0.0476 0.2603
vn 0.9567 -0.0045 0.2912
vn -0.1275 -0.0453 -0.9908
vn 0.0360 -0.0117 -0.9993
vn 0.3789 -0.0347 -0.9248
vn 0.4368 -0.0073 -0.8995
vn -0.9549 -0.0045 0.2968
vn -0.9632 -0.0471 0.2646
vn -0.9632 -0.0471 -0.2646
vn -0.9549 -0.0045 -0.2968
vn -0.4294 -0.0073 -0.9031
vn -0.3727 -0.0345 -0.9273
vn -0.0353 -0.0117 -0.9993
vn 0.1250 -0.0453 -0.9911
vn -0.2625 -0.1090 0.9588
vn -0.0174 -0.0167 0.9997
vn 0.0172 -0.0167 0.9997
vn 0.2597 -0.1090 0.9595
vn -0.4170 -0.0136 -0.9088
vn 0.3217 -0.0332 -0.9463
vn 0.3716 -0.1035 -0.9226
vn -0.3811 -0.0996 -0.9191
vn -0.0000 0.0337 0.9994
vn -0.0000 0.3975 0.9176
vn -0.1875 -0.0582 -0.9805
vn -0.0071 0.3886 -0.9214
vn -0.0022 0.3958 -0.9184
vn -0.0234 0.0257 -0.9994
vn 0.1905 -0.0583 0.9799
vn 0.0072 0.3886 0.9214
vn 0.0023 0.3958 0.9184
vn 0.0238 0.0256 0.9994
vn 0.4368 -0.0073 0.8995
vn 0.3789 -0.0347 0.9248
vn 0.0360 -0.0117 0.9993
vn -0.1275 -0.0453 0.9908
vn 0.2597 -0.1090 -0.9595
vn 0.0172 -0.0167 -0.9997
vn -0.0174 -0.0167 -0.9997
vn -0.2625 -0.1090 -0.9588
vn 0.9182 -0.2333 -0.3202
vn -0.9198 -0.2318 -0.3166
vn -0.9198 -0.2318 0.3166
vn 0.9182 -0.2333 0.3202
vn -0.0000 0.0337 -0.9994
vn -0.0000 0.3975 -0.9176
vn -0.9758 0.0184 0.2181
vn -0.9562 0.2185 0.1948
vn -0.9562 0.2185 -0.1948
vn -0.9758 0.0184 -0.2181
vn -0.0754 0.9478 0.3099
vn -0.0754 0.9478 -0.3099
vn -0.4807 0.8392 -0.2544
vn -0.4807 0.8392 0.2544
vn -0.0769 0.3855 -0.9195
vn 0.1758 -0.0611 -0.9825
vn -0.5640 0.0204 -0.8255
vn -0.5253 0.3130 -0.7913
vn 0.1758 -0.0611 0.9825
vn -0.0769 0.3855 0.9195
vn -0.5253 0.3130 0.7913
vn -0.5640 0.0204 0.8255
vn 0.9768 0.0180 -0.2132
vn 0.9581 0.2138 -0.1906
vn 0.9581 0.2138 0.1906
vn 0.9768 0.0180 0.2132
vn 0.9784 -0.0563 -0.1990
vn 0.9784 -0.0563 0.1990
vn 0.9734 -0.1065 0.2027
vn 0.9734 -0.1065 -0.2027
vn 0.0781 0.3855 0.9194
vn -0.1788 -0.0611 0.9820
vn 0.5728 0.0203 0.8195
vn 0.5338 0.3110 0.7864
vn -0.1788 -0.0611 -0.9820
vn 0.0781 0.3855 -0.9194
vn 0.5338 0.3110 -0.7864
vn 0.5728 0.0203 -0.8195
vn -0.6821 -0.4693 -0.5609
vn 0.6821 -0.4693 -0.5609
vn 0.6821 -0.4693 0.5609
vn -0.6821 -0.4693 0.5609
vn -0.6743 -0.4739 -0.5664
vn 0.6743 -0.4739 -0.5664
vn 0.6743 -0.4739 0.5664
vn -0.6743 -0.4739 0.5664
vn 0.3217 -0.0332 0.9463
vn -0.4170 -0.0136 0.9088
vn -0.3811 -0.0996 0.9191
vn 0.3716 -0.1035 0.9226
vn -0.9535 -0.0106 0.3011
vn -0.9535 -0.0106 -0.3011
vn -0.9564 -0.0868 -0.2790
vn -0.9564 -0.0868 0.2790
vn -0.9611 -0.0446 0.2725
vn -0.9611 -0.0446 -0.2725
vn -0.9568 -0.0920 -0.2759
vn -0.9568 -0.0920 0.2759
vn 0.9596 -0.0452 -0.2775
vn 0.9596 -0.0452 0.2775
vn 0.9550 -0.0938 0.2812
vn 0.9550 -0.0938 -0.2812
vn 0.9553 -0.0104 -0.2953
vn 0.9553 -0.0104 0.2953
vn 0.9581 -0.0851 0.2736
vn 0.9581 -0.0851 -0.2736
vn 0.4243 -0.0135 0.9054
vn -0.3277 -0.0332 0.9442
vn -0.3785 -0.1032 0.9199
vn 0.3881 -0.0992 0.9163
vn -0.2872 -0.2004 0.9367
vn 0.0061 0.3858 0.9226
vn -0.0077 0.3857 0.9226
vn 0.3413 -0.1993 0.9186
vn 0.0061 0.3858 -0.9226
vn -0.2872 -0.2004 -0.9367
vn 0.3413 -0.1993 -0.9186
vn -0.0077 0.3857 -0.9226
vn -0.9025 -0.3495 -0.2517
vn -0.9025 -0.3495 0.2517
vn 0.9276 -0.3124 0.2048
vn 0.9276 -0.3124 -0.2048
vn 0.2868 -0.2008 -0.9367
vn -0.0061 0.3858 -0.9226
vn 0.0076 0.3857 -0.9226
vn -0.3398 -0.1997 -0.9191
vn -0.0061 0.3858 0.9226
vn 0.2868 -0.2008 0.9367
vn -0.3398 -0.1997 0.9191
vn 0.0076 0.3857 0.9226
vn 0.9006 -0.3544 0.2517
vn 0.9006 -0.3544 -0.2517
vn -0.9255 -0.3180 -0.2057
vn -0.9255 -0.3180 0.2057
vn 0.7156 -0.5538 -0.4257
vn 0.7156 -0.5538 0.4257
vn -0.7156 -0.5538 0.4257
vn -0.7156 -0.5538 -0.4257
vn -0.7238 -0.5470 0.4205
vn -0.7238 -0.5470 -0.4205
vn 0.7238 -0.5470 -0.4205
vn 0.7238 -0.5470 0.4205
vn -0.9791 -0.0566 0.1956
vn -0.9791 -0.0566 -0.1956
vn -0.9745 -0.1044 -0.1984
vn -0.9745 -0.1044 0.1984
vn -0.5432 -0.0213 -0.8394
vn 0.4331 -0.0538 -0.8997
vn 0.4905 -0.1519 -0.8581
vn -0.5003 -0.1462 -0.8534
vn 0.9769 -0.0128 -0.2133
vn 0.9769 -0.0128 0.2133
vn 0.9755 -0.0969 0.1973
vn 0.9755 -0.0969 -0.1973
vn -0.9758 -0.0131 0.2182
vn -0.9758 -0.0131 -0.2182
vn -0.9744 -0.0992 -0.2018
vn -0.9744 -0.0992 0.2018
vn -0.4404 -0.0538 -0.8962
vn 0.5521 -0.0211 -0.8335
vn 0.5092 -0.1453 -0.8483
vn -0.4992 -0.1511 -0.8532
vn 0.5521 -0.0211 0.8335
vn -0.4404 -0.0538 0.8962
vn -0.4992 -0.1511 0.8532
vn 0.5092 -0.1453 0.8483
vn 0.0733 0.7439 0.6642
vn 0.2170 0.7153 0.6642
vn 0.3524 0.6593 0.6642
vn 0.4742 0.5779 0.6642
vn 0.5778 0.4742 0.6642
vn 0.6593 0.3524 0.6642
vn 0.7153 0.2170 0.6642
vn 0.7439 0.0733 0.6642
vn 0.7439 -0.0733 0.6642
vn 0.7153 -0.2170 0.6642
vn 0.6593 -0.3524 0.6642
vn 0.5779 -0.4742 0.6642
vn 0.4742 -0.5779 0.6642
vn 0.3524 -0.6593 0.6642
vn 0.2170 -0.7153 0.6642
vn 0.0733 -0.7439 0.6642
vn -0.0733 -0.7439 0.6642
vn -0.2170 -0.7153 0.6642
vn -0.3524 -0.6593 0.6642
vn -0.4742 -0.5779 0.6642
vn -0.5779 -0.4742 0.6642
vn -0.6593 -0.3524 0.6642
vn -0.7153 -0.2170 0.6642
vn -0.7439 -0.0733 0.6642
vn -0.7439 0.0733 0.6642
vn -0.7153 0.2170 0.6642
vn -0.6593 0.3524 0.6642
vn -0.5778 0.4742 0.6642
vn -0.4742 0.5779 0.6642
vn -0.3524 0.6593 0.6642
vn -0.2170 0.7153 0.6642
vn -0.0733 0.7439 0.6642
vt 1.000000 0.500000
vt 1.000000 1.000000
vt 0.968750 1.000000
vt 0.968750 0.500000
vt 0.937500 1.000000
vt 0.937500 0.500000
vt 0.906250 1.000000
vt 0.906250 0.500000
vt 0.875000 1.000000
vt 0.875000 0.500000
vt 0.843750 1.000000
vt 0.843750 0.500000
vt 0.812500 1.000000
vt 0.812500 0.500000
vt 0.781250 1.000000
vt 0.781250 0.500000
vt 0.750000 1.000000
vt 0.750000 0.500000
vt 0.718750 1.000000
vt 0.718750 0.500000
vt 0.687500 1.000000
vt 0.687500 0.500000
vt 0.656250 1.000000
vt 0.656250 0.500000
vt 0.625000 1.000000
vt 0.625000 0.500000
vt 0.593750 1.000000
vt 0.593750 0.500000
vt 0.562500 1.000000
vt 0.562500 0.500000
vt 0.531250 1.000000
vt 0.531250 0.500000
vt 0.500000 1.000000
vt 0.500000 0.500000
vt 0.468750 1.000000
vt 0.468750 0.500000
vt 0.437500 1.000000
vt 0.437500 0.500000
vt 0.406250 1.000000
vt 0.406250 0.500000
vt 0.375000 1.000000
vt 0.375000 0.500000
vt 0.343750 1.000000
vt 0.343750 0.500000
vt 0.312500 1.000000
vt 0.312500 0.500000
vt 0.281250 1.000000
vt 0.281250 0.500000
vt 0.250000 1.000000
vt 0.250000 0.500000
vt 0.218750 1.000000
vt 0.218750 0.500000
vt 0.187500 1.000000
vt 0.187500 0.500000
vt 0.156250 1.000000
vt 0.156250 0.500000
vt 0.125000 1.000000
vt 0.125000 0.500000
vt 0.093750 1.000000
vt 0.093750 0.500000
vt 0.062500 1.000000
vt 0.062500 0.500000
vt 0.296822 0.485388
vt 0.250000 0.490000
vt 0.203178 0.485388
vt 0.158156 0.471731
vt 0.116663 0.449553
vt 0.080294 0.419706
vt 0.050447 0.383337
vt 0.028269 0.341844
vt 0.014612 0.296822
vt 0.010000 0.250000
vt 0.014612 0.203178
vt 0.028269 0.158156
vt 0.050447 0.116663
vt 0.080294 0.080294
vt 0.116663 0.050447
vt 0.158156 0.028269
vt 0.203178 0.014612
vt 0.250000 0.010000
vt 0.296822 0.014612
vt 0.341844 0.028269
vt 0.383337 0.050447
vt 0.419706 0.080294
vt 0.449553 0.116663
vt 0.471731 0.158156
vt 0.485388 0.203178
vt 0.490000 0.250000
vt 0.485388 0.296822
vt 0.471731 0.341844
vt 0.449553 0.383337
vt 0.419706 0.419706
vt 0.383337 0.449553
vt 0.341844 0.471731
vt 0.031250 1.000000
vt 0.031250 0.500000
vt 0.000000 1.000000
vt 0.000000 0.500000
vt 0.750000 0.490000
vt 0.796822 0.485388
vt 0.841844 0.471731
vt 0.883337 0.449553
vt 0.919706 0.419706
vt 0.949553 0.383337
vt 0.971731 0.341844
vt 0.985388 0.296822
vt 0.990000 0.250000
vt 0.985388 0.203178
vt 0.971731 0.158156
vt 0.949553 0.116663
vt 0.919706 0.080294
vt 0.883337 0.050447
vt 0.841844 0.028269
vt 0.796822 0.014612
vt 0.750000 0.010000
vt 0.703178 0.014612
vt 0.658156 0.028269
vt 0.616663 0.050447
vt 0.580294 0.080294
vt 0.550447 0.116663
vt 0.528269 0.158156
vt 0.514612 0.203178
vt 0.510000 0.250000
vt 0.514612 0.296822
vt 0.528269 0.341844
vt 0.550447 0.383337
vt 0.580294 0.419706
vt 0.616663 0.449553
vt 0.658156 0.471731
vt 0.703178 0.485388
vt 0.750000 0.125000
vt 0.750000 0.187789
vt 0.718750 0.188079
vt 0.718750 0.129630
vt 0.750000 0.250000
vt 0.718750 0.250000
vt 0.687500 0.250000
vt 0.687500 0.187789
vt 0.687500 0.125000
vt 0.750000 0.375000
vt 0.750000 0.437500
vt 0.718750 0.437500
vt 0.718750 0.375000
vt 0.750000 0.500000
vt 0.718750 0.500000
vt 0.687500 0.500000
vt 0.687500 0.437500
vt 0.687500 0.375000
vt 0.750000 0.625000
vt 0.750000 0.687500
vt 0.718750 0.687500
vt 0.718750 0.625000
vt 0.750000 0.750000
vt 0.718750 0.750000
vt 0.687500 0.750000
vt 0.687500 0.687500
vt 0.687500 0.625000
vt 0.750000 0.875000
vt 0.734375 0.937500
vt 0.718750 0.915799
vt 0.718750 0.870370
vt 0.718750 1.000000
vt 0.703125 0.937500
vt 0.687500 0.875000
vt 0.718750 0.000000
vt 0.734375 0.062500
vt 0.718750 0.084201
vt 0.703125 0.062500
vt 0.750000 0.312500
vt 0.718750 0.312500
vt 0.687500 0.312500
vt 0.750000 0.562500
vt 0.718750 0.562500
vt 0.687500 0.562500
vt 0.750000 0.812211
vt 0.718750 0.811921
vt 0.687500 0.812211
vt 0.656250 0.687500
vt 0.656250 0.625000
vt 0.656250 0.750000
vt 0.625000 0.750000
vt 0.625000 0.687500
vt 0.625000 0.625000
vt 0.671875 0.937500
vt 0.656250 0.915799
vt 0.656250 0.870370
vt 0.656250 1.000000
vt 0.640625 0.937500
vt 0.625000 0.875000
vt 0.656250 0.000000
vt 0.671875 0.062500
vt 0.656250 0.084201
vt 0.640625 0.062500
vt 0.656250 0.129630
vt 0.625000 0.125000
vt 0.656250 0.312500
vt 0.656250 0.250000
vt 0.656250 0.375000
vt 0.625000 0.375000
vt 0.625000 0.312500
vt 0.625000 0.250000
vt 0.656250 0.562500
vt 0.656250 0.500000
vt 0.625000 0.562500
vt 0.656250 0.811921
vt 0.625000 0.812211
vt 0.656250 0.188079
vt 0.625000 0.187789
vt 0.656250 0.437500
vt 0.625000 0.437500
vt 0.593750 0.000000
vt 0.609375 0.062500
vt 0.593750 0.084201
vt 0.578125 0.062500
vt 0.593750 0.129630
vt 0.562500 0.125000
vt 0.593750 0.312500
vt 0.593750 0.250000
vt 0.593750 0.375000
vt 0.562500 0.375000
vt 0.562500 0.312500
vt 0.562500 0.250000
vt 0.593750 0.562500
vt 0.593750 0.500000
vt 0.593750 0.625000
vt 0.562500 0.625000
vt 0.562500 0.562500
vt 0.562500 0.500000
vt 0.593750 0.811921
vt 0.593750 0.750000
vt 0.593750 0.870370
vt 0.562500 0.875000
vt 0.562500 0.812211
vt 0.562500 0.750000
vt 0.593750 0.188079
vt 0.562500 0.187789
vt 0.593750 0.437500
vt 0.562500 0.437500
vt 0.593750 0.687500
vt 0.562500 0.687500
vt 0.609375 0.937500
vt 0.593750 0.915799
vt 0.593750 1.000000
vt 0.578125 0.937500
vt 0.531250 0.811921
vt 0.531250 0.750000
vt 0.531250 0.870370
vt 0.500000 0.875000
vt 0.500000 0.812211
vt 0.500000 0.750000
vt 0.531250 0.188079
vt 0.531250 0.129630
vt 0.531250 0.250000
vt 0.500000 0.250000
vt 0.500000 0.187789
vt 0.500000 0.125000
vt 0.531250 0.437500
vt 0.531250 0.375000
vt 0.531250 0.500000
vt 0.500000 0.437500
vt 0.500000 0.375000
vt 0.531250 0.687500
vt 0.531250 0.625000
vt 0.500000 0.687500
vt 0.500000 0.625000
vt 0.546875 0.937500
vt 0.531250 0.915799
vt 0.531250 1.000000
vt 0.515625 0.937500
vt 0.531250 0.000000
vt 0.546875 0.062500
vt 0.531250 0.084201
vt 0.515625 0.062500
vt 0.531250 0.312500
vt 0.500000 0.312500
vt 0.531250 0.562500
vt 0.500000 0.562500
vt 0.468750 0.188079
vt 0.468750 0.129630
vt 0.468750 0.250000
vt 0.437500 0.250000
vt 0.437500 0.187789
vt 0.437500 0.125000
vt 0.468750 0.437500
vt 0.468750 0.375000
vt 0.468750 0.500000
vt 0.437500 0.500000
vt 0.437500 0.437500
vt 0.437500 0.375000
vt 0.468750 0.687500
vt 0.468750 0.625000
vt 0.468750 0.750000
vt 0.437500 0.750000
vt 0.437500 0.687500
vt 0.437500 0.625000
vt 0.484375 0.937500
vt 0.468750 0.915799
vt 0.468750 0.870370
vt 0.468750 1.000000
vt 0.453125 0.937500
vt 0.437500 0.875000
vt 0.468750 0.000000
vt 0.484375 0.062500
vt 0.468750 0.084201
vt 0.453125 0.062500
vt 0.468750 0.312500
vt 0.437500 0.312500
vt 0.468750 0.562500
vt 0.437500 0.562500
vt 0.468750 0.811921
vt 0.437500 0.812211
vt 0.421875 0.937500
vt 0.406250 0.915799
vt 0.406250 0.870370
vt 0.406250 1.000000
vt 0.390625 0.937500
vt 0.375000 0.875000
vt 0.406250 0.000000
vt 0.421875 0.062500
vt 0.406250 0.084201
vt 0.390625 0.062500
vt 0.406250 0.129630
vt 0.375000 0.125000
vt 0.406250 0.312500
vt 0.406250 0.250000
vt 0.406250 0.375000
vt 0.375000 0.375000
vt 0.375000 0.312500
vt 0.375000 0.250000
vt 0.406250 0.562500
vt 0.406250 0.500000
vt 0.406250 0.625000
vt 0.375000 0.625000
vt 0.375000 0.562500
vt 0.375000 0.500000
vt 0.406250 0.811921
vt 0.406250 0.750000
vt 0.375000 0.812211
vt 0.375000 0.750000
vt 0.406250 0.188079
vt 0.375000 0.187789
vt 0.406250 0.437500
vt 0.375000 0.437500
vt 0.406250 0.687500
vt 0.375000 0.687500
vt 0.343750 0.312500
vt 0.343750 0.250000
vt 0.343750 0.375000
vt 0.312500 0.375000
vt 0.312500 0.312500
vt 0.312500 0.250000
vt 0.343750 0.562500
vt 0.343750 0.500000
vt 0.343750 0.625000
vt 0.312500 0.625000
vt 0.312500 0.562500
vt 0.312500 0.500000
vt 0.343750 0.811921
vt 0.343750 0.750000
vt 0.343750 0.870370
vt 0.312500 0.875000
vt 0.312500 0.812211
vt 0.312500 0.750000
vt 0.343750 0.188079
vt 0.343750 0.129630
vt 0.312500 0.187789
vt 0.312500 0.125000
vt 0.343750 0.437500
vt 0.312500 0.437500
vt 0.343750 0.687500
vt 0.312500 0.687500
vt 0.359375 0.937500
vt 0.343750 0.915799
vt 0.343750 1.000000
vt 0.328125 0.937500
vt 0.343750 0.000000
vt 0.359375 0.062500
vt 0.343750 0.084201
vt 0.328125 0.062500
vt 0.281250 0.188079
vt 0.281250 0.129630
vt 0.281250 0.250000
vt 0.250000 0.250000
vt 0.250000 0.187789
vt 0.250000 0.125000
vt 0.281250 0.437500
vt 0.281250 0.375000
vt 0.281250 0.500000
vt 0.250000 0.500000
vt 0.250000 0.437500
vt 0.250000 0.375000
vt 0.281250 0.687500
vt 0.281250 0.625000
vt 0.281250 0.750000
vt 0.250000 0.750000
vt 0.250000 0.687500
vt 0.250000 0.625000
vt 0.296875 0.937500
vt 0.281250 0.915799
vt 0.281250 0.870370
vt 0.281250 1.000000
vt 0.265625 0.937500
vt 0.250000 0.875000
vt 0.281250 0.000000
vt 0.296875 0.062500
vt 0.281250 0.084201
vt 0.265625 0.062500
vt 0.281250 0.312500
vt 0.250000 0.312500
vt 0.281250 0.562500
vt 0.250000 0.562500
vt 0.281250 0.811921
vt 0.250000 0.812211
vt 0.218750 0.437500
vt 0.218750 0.375000
vt 0.218750 0.500000
vt 0.187500 0.500000
vt 0.187500 0.437500
vt 0.187500 0.375000
vt 0.218750 0.687500
vt 0.218750 0.625000
vt 0.218750 0.750000
vt 0.187500 0.750000
vt 0.187500 0.687500
vt 0.187500 0.625000
vt 0.234375 0.937500
vt 0.218750 0.915799
vt 0.218750 0.870370
vt 0.218750 1.000000
vt 0.203125 0.937500
vt 0.187500 0.875000
vt 0.218750 0.000000
vt 0.234375 0.062500
vt 0.218750 0.084201
vt 0.203125 0.062500
vt 0.218750 0.129630
vt 0.187500 0.125000
vt 0.218750 0.312500
vt 0.218750 0.250000
vt 0.187500 0.312500
vt 0.187500 0.250000
vt 0.218750 0.562500
vt 0.187500 0.562500
vt 0.218750 0.811921
vt 0.187500 0.812211
vt 0.218750 0.188079
vt 0.187500 0.187789
vt 0.156250 0.000000
vt 0.171875 0.062500
vt 0.156250 0.084201
vt 0.140625 0.062500
vt 0.156250 0.129630
vt 0.125000 0.125000
vt 0.156250 0.312500
vt 0.156250 0.250000
vt 0.156250 0.375000
vt 0.125000 0.375000
vt 0.125000 0.312500
vt 0.125000 0.250000
vt 0.156250 0.562500
vt 0.156250 0.500000
vt 0.156250 0.625000
vt 0.125000 0.625000
vt 0.125000 0.562500
vt 0.125000 0.500000
vt 0.156250 0.811921
vt 0.156250 0.750000
vt 0.156250 0.870370
vt 0.125000 0.875000
vt 0.125000 0.812211
vt 0.125000 0.750000
vt 0.156250 0.188079
vt 0.125000 0.187789
vt 0.156250 0.437500
vt 0.125000 0.437500
vt 0.156250 0.687500
vt 0.125000 0.687500
vt 0.171875 0.937500
vt 0.156250 0.915799
vt 0.156250 1.000000
vt 0.140625 0.937500
vt 0.093750 0.562500
vt 0.093750 0.500000
vt 0.093750 0.625000
vt 0.062500 0.625000
vt 0.062500 0.562500
vt 0.062500 0.500000
vt 0.093750 0.811921
vt 0.093750 0.750000
vt 0.093750 0.870370
vt 0.062500 0.875000
vt 0.062500 0.812211
vt 0.062500 0.750000
vt 0.093750 0.188079
vt 0.093750 0.129630
vt 0.093750 0.250000
vt 0.062500 0.250000
vt 0.062500 0.187789
vt 0.062500 0.125000
vt 0.093750 0.437500
vt 0.093750 0.375000
vt 0.062500 0.437500
vt 0.062500 0.375000
vt 0.093750 0.687500
vt 0.062500 0.687500
vt 0.109375 0.937500
vt 0.093750 0.915799
vt 0.093750 1.000000
vt 0.078125 0.937500
vt 0.093750 0.000000
vt 0.109375 0.062500
vt 0.093750 0.084201
vt 0.078125 0.062500
vt 0.093750 0.312500
vt 0.062500 0.312500
vt 0.031250 0.188079
vt 0.031250 0.129630
vt 0.031250 0.250000
vt 0.000000 0.250000
vt 0.000000 0.187500
vt 0.000000 0.125000
vt 0.031250 0.437500
vt 0.031250 0.375000
vt 0.031250 0.500000
vt 0.000000 0.437500
vt 0.000000 0.375000
vt 0.031250 0.687500
vt 0.031250 0.625000
vt 0.031250 0.750000
vt 0.000000 0.750000
vt 0.000000 0.687500
vt 0.000000 0.625000
vt 0.046875 0.937500
vt 0.031250 0.915799
vt 0.031250 0.870370
vt 0.031250 1.000000
vt 0.015625 0.937500
vt 0.000000 0.875000
vt 0.031250 0.000000
vt 0.046875 0.062500
vt 0.031250 0.084201
vt 0.015625 0.062500
vt 0.031250 0.312500
vt 0.000000 0.312500
vt 0.031250 0.562500
vt 0.000000 0.562500
vt 0.031250 0.811921
vt 0.000000 0.812500
vt 1.000000 0.625000
vt 1.000000 0.687500
vt 0.968750 0.687500
vt 0.968750 0.625000
vt 1.000000 0.750000
vt 0.968750 0.750000
vt 0.937500 0.750000
vt 0.937500 0.687500
vt 0.937500 0.625000
vt 1.000000 0.875000
vt 0.984375 0.937500
vt 0.968750 0.915799
vt 0.968750 0.870370
vt 0.968750 1.000000
vt 0.953125 0.937500
vt 0.937500 0.875000
vt 0.968750 0.000000
vt 0.984375 0.062500
vt 0.968750 0.084201
vt 0.953125 0.062500
vt 1.000000 0.125000
vt 0.968750 0.129630
vt 0.937500 0.125000
vt 1.000000 0.250000
vt 1.000000 0.312500
vt 0.968750 0.312500
vt 0.968750 0.250000
vt 1.000000 0.375000
vt 0.968750 0.375000
vt 0.937500 0.375000
vt 0.937500 0.312500
vt 0.937500 0.250000
vt 1.000000 0.562500
vt 0.968750 0.562500
vt 0.968750 0.500000
vt 0.937500 0.562500
vt 0.937500 0.500000
vt 1.000000 0.812500
vt 0.968750 0.811921
vt 0.937500 0.812211
vt 1.000000 0.187500
vt 0.968750 0.188079
vt 0.937500 0.187789
vt 1.000000 0.437500
vt 0.968750 0.437500
vt 0.937500 0.437500
vt 0.906250 0.000000
vt 0.921875 0.062500
vt 0.906250 0.084201
vt 0.890625 0.062500
vt 0.906250 0.129630
vt 0.875000 0.125000
vt 0.906250 0.312500
vt 0.906250 0.250000
vt 0.906250 0.375000
vt 0.875000 0.375000
vt 0.875000 0.312500
vt 0.875000 0.250000
vt 0.906250 0.562500
vt 0.906250 0.500000
vt 0.906250 0.625000
vt 0.875000 0.625000
vt 0.875000 0.562500
vt 0.875000 0.500000
vt 0.906250 0.811921
vt 0.906250 0.750000
vt 0.906250 0.870370
vt 0.875000 0.875000
vt 0.875000 0.812211
vt 0.875000 0.750000
vt 0.906250 0.188079
vt 0.875000 0.187789
vt 0.906250 0.437500
vt 0.875000 0.437500
vt 0.906250 0.687500
vt 0.875000 0.687500
vt 0.921875 0.937500
vt 0.906250 0.915799
vt 0.906250 1.000000
vt 0.890625 0.937500
vt 0.843750 0.811921
vt 0.843750 0.750000
vt 0.843750 0.870370
vt 0.812500 0.875000
vt 0.812500 0.812211
vt 0.812500 0.750000
vt 0.843750 0.188079
vt 0.843750 0.129630
vt 0.843750 0.250000
vt 0.812500 0.250000
vt 0.812500 0.187789
vt 0.812500 0.125000
vt 0.843750 0.437500
vt 0.843750 0.375000
vt 0.843750 0.500000
vt 0.812500 0.500000
vt 0.812500 0.437500
vt 0.812500 0.375000
vt 0.843750 0.687500
vt 0.843750 0.625000
vt 0.812500 0.687500
vt 0.812500 0.625000
vt 0.859375 0.937500
vt 0.843750 0.915799
vt 0.843750 1.000000
vt 0.828125 0.937500
vt 0.843750 0.000000
vt 0.859375 0.062500
vt 0.843750 0.084201
vt 0.828125 0.062500
vt 0.843750 0.312500
vt 0.812500 0.312500
vt 0.843750 0.562500
vt 0.812500 0.562500
vt 0.781250 0.188079
vt 0.781250 0.129630
vt 0.781250 0.250000
vt 0.781250 0.437500
vt 0.781250 0.375000
vt 0.781250 0.500000
vt 0.781250 0.687500
vt 0.781250 0.625000
vt 0.781250 0.750000
vt 0.796875 0.937500
vt 0.781250 0.915799
vt 0.781250 0.870370
vt 0.781250 1.000000
vt 0.765625 0.937500
vt 0.781250 0.000000
vt 0.796875 0.062500
vt 0.781250 0.084201
vt 0.765625 0.062500
vt 0.781250 0.312500
vt 0.781250 0.562500
vt 0.781250 0.811921
vt 0.555279 1.000000
vt 0.564962 1.000000
vt 0.556247 1.000000
vt 0.555279 1.000000
vt 0.536853 0.402164
vt 0.587836 0.400888
vt 0.587974 0.443753
vt 0.537405 0.446638
vt 0.625000 0.386851
vt 0.625000 0.443425
vt 0.588773 0.487237
vt 0.542012 0.516422
vt 0.625000 0.625000
vt 0.625000 0.625000
vt 0.625000 0.500000
vt 0.625000 0.750000
vt 0.625000 0.750000
vt 0.536853 0.900137
vt 0.587836 0.898827
vt 0.588220 0.942241
vt 0.538388 0.943772
vt 0.625000 0.884418
vt 0.625000 0.942209
vt 0.589756 0.983947
vt 0.375000 0.386851
vt 0.402543 0.446596
vt 0.378130 0.445801
vt 0.375000 0.386851
vt 0.405046 0.522808
vt 0.378363 0.520908
vt 0.375000 0.443425
vt 0.375000 0.386851
vt 0.759418 0.500000
vt 0.817209 0.500000
vt 0.816913 0.625000
vt 0.772517 0.625000
vt 0.858947 0.625000
vt 0.875000 0.750000
vt 0.817209 0.750000
vt 0.759418 0.750000
vt 0.375000 0.884418
vt 0.463462 0.898827
vt 0.465724 0.943846
vt 0.400039 0.942536
vt 0.465140 1.000000
vt 0.466903 0.522124
vt 0.465900 0.625000
vt 0.405046 0.625000
vt 0.528759 0.625000
vt 0.542012 0.733578
vt 0.466903 0.727876
vt 0.405046 0.727192
vt 0.463462 0.400888
vt 0.466104 0.447701
vt 0.375000 0.000000
vt 0.465140 0.000000
vt 0.465520 0.122368
vt 0.402543 0.122200
vt 0.555279 0.000000
vt 0.529500 0.122470
vt 0.542012 0.233870
vt 0.466903 0.228269
vt 0.405046 0.227597
vt 0.466104 0.303521
vt 0.402543 0.304663
vt 0.537405 0.304566
vt 0.536853 0.349863
vt 0.463462 0.351173
vt 0.375000 0.365582
vt 0.375000 0.863149
vt 0.463462 0.849112
vt 0.462836 0.873826
vt 0.375000 0.873784
vt 0.536853 0.847836
vt 0.536853 0.873834
vt 0.738149 0.500000
vt 0.748784 0.500000
vt 0.748817 0.625000
vt 0.725388 0.625000
vt 0.748784 0.750000
vt 0.738149 0.750000
vt 0.378130 0.305457
vt 0.378756 0.229464
vt 0.375000 0.365582
vt 0.375000 0.365582
vt 0.375000 0.307791
vt 0.375000 0.250000
vt 0.587836 0.849112
vt 0.587836 0.873826
vt 0.625000 0.863149
vt 0.625000 0.873784
vt 0.589015 0.263990
vt 0.587974 0.307460
vt 0.625000 0.250000
vt 0.625000 0.307791
vt 0.625000 0.365582
vt 0.587836 0.351173
vt 0.588773 0.762763
vt 0.587974 0.806247
vt 0.537405 0.803362
vt 0.625000 0.750000
vt 0.625000 0.806575
vt 0.681575 0.500000
vt 0.681870 0.625000
vt 0.640231 0.625000
vt 0.681575 0.750000
vt 0.466104 0.802299
vt 0.402543 0.803405
vt 0.462836 0.376174
vt 0.375000 0.376217
vt 0.536853 0.376166
vt 0.240582 0.500000
vt 0.251217 0.500000
vt 0.251217 0.625000
vt 0.243536 0.625000
vt 0.261851 0.500000
vt 0.258897 0.625000
vt 0.261851 0.750000
vt 0.251217 0.750000
vt 0.240582 0.750000
vt 0.587836 0.376174
vt 0.625000 0.376217
vt 0.590140 0.000000
vt 0.591350 0.120660
vt 0.565931 0.119792
vt 0.625000 0.000000
vt 0.625000 0.125000
vt 0.591592 0.211806
vt 0.566899 0.208333
vt 0.875000 0.625000
vt 0.875000 0.750000
vt 0.875000 0.500000
vt 0.875000 0.625000
vt 0.875000 0.750000
vt 0.591243 0.246910
vt 0.591505 0.245104
vt 0.625000 0.250000
vt 0.563645 0.220000
vt 0.566551 0.241701
vt 0.590382 1.000000
vt 0.591108 1.000000
vt 0.625000 1.000000
vt 0.590140 1.000000
vt 0.566899 0.541667
vt 0.591592 0.538194
vt 0.591592 0.625000
vt 0.566899 0.625000
vt 0.591592 0.711806
vt 0.566899 0.708333
vt 0.556141 0.121042
vt 0.555434 0.119429
vt 0.556141 0.206015
vt 0.555279 0.000000
vt 0.555279 0.117091
vt 0.555279 0.187500
vt 0.591001 0.746042
vt 0.591505 0.745104
vt 0.563645 0.720000
vt 0.566551 0.741702
vt 0.563645 0.530000
vt 0.591001 0.503958
vt 0.591505 0.504896
vt 0.566550 0.508299
vt 0.318425 0.500000
vt 0.318425 0.625000
vt 0.277566 0.625000
vt 0.359285 0.625000
vt 0.375000 0.750000
vt 0.318425 0.750000
vt 0.125000 0.500000
vt 0.182791 0.500000
vt 0.181186 0.625000
vt 0.125000 0.625000
vt 0.224529 0.625000
vt 0.182791 0.750000
vt 0.125000 0.750000
vt 0.377504 0.942209
vt 0.375000 0.884418
vt 0.375000 1.000000
vt 0.375000 1.000000
vt 0.375000 0.942209
vt 0.375000 0.884418
vt 0.378130 0.122666
vt 0.375000 0.000000
vt 0.375000 0.125000
vt 0.375000 0.000000
vt 0.263127 0.625000
vt 0.261851 0.750000
vt 0.261851 0.500000
vt 0.239272 0.625000
vt 0.240582 0.500000
vt 0.240582 0.750000
vt 0.377184 0.625000
vt 0.378363 0.729092
vt 0.378130 0.804199
vt 0.375000 0.863149
vt 0.375000 0.863149
vt 0.375000 0.806575
vt 0.590140 0.998395
vt 0.591017 0.247279
vt 0.563973 0.212262
vt 0.873395 0.625000
vt 0.553653 0.120674
vt 0.590049 0.506233
vt 0.563973 0.537768
vt 0.615709 0.534329
vt 0.590049 0.743767
vt 0.615709 0.715671
vt 0.563973 0.712232
vt 0.554530 0.625000
vt 0.557003 0.625000
vt 0.624635 0.625000
vt 0.555279 0.118441
vt 0.555279 0.201196
vt 0.555279 0.687500
vt 0.555279 0.625000
vt 0.555279 0.625000
vt 0.555279 0.701196
vt 0.555279 0.562500
vt 0.555279 0.548804
vt 0.555279 0.562500
vt 0.555589 0.625000
vt 0.556141 0.706015
vt 0.556141 0.543985
vt 0.556644 0.235073
vt 0.556732 0.204765
vt 0.556731 0.625000
vt 0.556732 0.545235
vt 0.556732 0.704765
vt 0.556489 0.119117
vt 0.556644 0.514927
vt 0.556644 0.735073
vt 0.250000 0.250000
s 0
usemtl Material.002
f 1/1/1 2/2/1 4/3/1 3/4/1
f 3/4/2 4/3/2 6/5/2 5/6/2
f 5/6/3 6/5/3 8/7/3 7/8/3
f 7/8/4 8/7/4 10/9/4 9/10/4
f 9/10/5 10/9/5 12/11/5 11/12/5
f 11/12/6 12/11/6 14/13/6 13/14/6
f 13/14/7 14/13/7 16/15/7 15/16/7
f 15/16/8 16/15/8 18/17/8 17/18/8
f 17/18/9 18/17/9 20/19/9 19/20/9
f 19/20/10 20/19/10 22/21/10 21/22/10
f 21/22/11 22/21/11 24/23/11 23/24/11
f 23/24/12 24/23/12 26/25/12 25/26/12
f 25/26/13 26/25/13 28/27/13 27/28/13
f 27/28/14 28/27/14 30/29/14 29/30/14
f 29/30/15 30/29/15 32/31/15 31/32/15
f 31/32/16 32/31/16 34/33/16 33/34/16
f 33/34/17 34/33/17 36/35/17 35/36/17
f 35/36/18 36/35/18 38/37/18 37/38/18
f 37/38/19 38/37/19 40/39/19 39/40/19
f 39/40/20 40/39/20 42/41/20 41/42/20
f 41/42/21 42/41/21 44/43/21 43/44/21
f 43/44/22 44/43/22 46/45/22 45/46/22
f 45/46/23 46/45/23 48/47/23 47/48/23
f 47/48/24 48/47/24 50/49/24 49/50/24
f 49/50/25 50/49/25 52/51/25 51/52/25
f 51/52/26 52/51/26 54/53/26 53/54/26
f 53/54/27 54/53/27 56/55/27 55/56/27
f 55/56/28 56/55/28 58/57/28 57/58/28
f 57/58/29 58/57/29 60/59/29 59/60/29
f 59/60/30 60/59/30 62/61/30 61/62/30
f 4/63/31 2/64/31 64/65/31 62/66/31 60/67/31 58/68/31 56/69/31 54/70/31 52/71/31 50/72/31 48/73/31 46/74/31 44/75/31 42/76/31 40/77/31 38/78/31 36/79/31 34/80/31 32/81/31 30/82/31 28/83/31 26/84/31 24/85/31 22/86/31 20/87/31 18/88/31 16/89/31 14/90/31 12/91/31 10/92/31 8/93/31 6/94/31
f 61/62/32 62/61/32 64/95/32 63/96/32
f 63/96/33 64/95/33 2/97/33 1/98/33
f 1/99/34 3/100/34 5/101/34 7/102/34 9/103/34 11/104/34 13/105/34 15/106/34 17/107/34 19/108/34 21/109/34 23/110/34 25/111/34 27/112/34 29/113/34 31/114/34 33/115/34 35/116/34 37/117/34 39/118/34 41/119/34 43/120/34 45/121/34 47/122/34 49/123/34 51/124/34 53/125/34 55/126/34 57/127/34 59/128/34 61/129/34 63/130/34
f 765/64/709 797/916/709 766/63/709
f 766/63/710 797/916/710 767/94/710
f 767/94/711 797/916/711 768/93/711
f 768/93/712 797/916/712 769/92/712
f 769/92/713 797/916/713 770/91/713
f 770/91/714 797/916/714 771/90/714
f 771/90/715 797/916/715 772/89/715
f 772/89/716 797/916/716 773/88/716
f 773/88/717 797/916/717 774/87/717
f 774/87/718 797/916/718 775/86/718
f 775/86/719 797/916/719 776/85/719
f 776/85/720 797/916/720 777/84/720
f 777/84/721 797/916/721 778/83/721
f 778/83/722 797/916/722 779/82/722
f 779/82/723 797/916/723 780/81/723
f 780/81/724 797/916/724 781/80/724
f 781/80/725 797/916/725 782/79/725
f 782/79/726 797/916/726 783/78/726
f 783/78/727 797/916/727 784/77/727
f 784/77/728 797/916/728 785/76/728
f 785/76/729 797/916/729 786/75/729
f 786/75/730 797/916/730 787/74/730
f 787/74/731 797/916/731 788/73/731
f 788/73/732 797/916/732 789/72/732
f 789/72/733 797/916/733 790/71/733
f 790/71/734 797/916/734 791/70/734
f 791/70/735 797/916/735 792/69/735
f 792/69/736 797/916/736 793/68/736
f 793/68/737 797/916/737 794/67/737
f 794/67/738 797/916/738 795/66/738
f 765/99/31 766/100/31 767/101/31 768/102/31 769/103/31 770/104/31 771/105/31 772/106/31 773/107/31 774/108/31 775/109/31 776/110/31 777/111/31 778/112/31 779/113/31 780/114/31 781/115/31 782/116/31 783/117/31 784/118/31 785/119/31 786/120/31 787/121/31 788/122/31 789/123/31 790/124/31 791/125/31 792/126/31 793/127/31 794/128/31 795/129/31 796/130/31
f 795/66/739 797/916/739 796/65/739
f 796/65/740 797/916/740 765/64/740
usemtl Material.003
f 68/131/35 438/132/35 583/133/35 243/134/35
f 438/132/36 178/135/36 442/136/36 583/133/36
f 583/133/37 442/136/37 74/137/37 242/138/37
f 243/134/38 583/133/38 242/138/38 75/139/38
f 67/140/39 236/141/39 584/142/39 244/143/39
f 236/141/40 66/144/40 245/145/40 584/142/40
f 584/142/41 245/145/41 72/146/41 240/147/41
f 244/143/42 584/142/42 240/147/42 73/148/42
f 65/149/43 436/150/43 585/151/43 246/152/43
f 436/150/44 177/153/44 443/154/44 585/151/44
f 585/151/45 443/154/45 70/155/45 238/156/45
f 246/152/46 585/151/46 238/156/46 71/157/46
f 176/158/47 435/159/47 586/160/47 444/161/47
f 126/162/48 440/163/48 586/160/48 435/159/48
f 69/164/49 444/161/49 586/160/49 440/163/49
f 125/165/50 439/166/50 587/167/50 441/168/50
f 68/131/51 243/134/51 587/167/51 439/166/51
f 75/139/52 441/168/52 587/167/52 243/134/52
f 178/135/53 437/169/53 588/170/53 442/136/53
f 437/169/54 67/140/54 244/143/54 588/170/54
f 588/170/55 244/143/55 73/148/55 241/171/55
f 442/136/56 588/170/56 241/171/56 74/137/56
f 66/144/57 235/172/57 589/173/57 245/145/57
f 235/172/58 65/149/58 246/152/58 589/173/58
f 589/173/59 246/152/59 71/157/59 239/174/59
f 245/145/60 589/173/60 239/174/60 72/146/60
f 177/153/61 431/175/61 590/176/61 443/154/61
f 431/175/62 176/158/62 444/161/62 590/176/62
f 590/176/63 444/161/63 69/164/63 237/177/63
f 443/154/64 590/176/64 237/177/64 70/155/64
f 71/157/65 238/156/65 591/178/65 253/179/65
f 238/156/66 70/155/66 254/180/66 591/178/66
f 591/178/67 254/180/67 77/181/67 248/182/67
f 253/179/68 591/178/68 248/182/68 78/183/68
f 69/164/69 440/184/69 592/185/69 255/186/69
f 126/187/70 445/188/70 592/185/70 440/184/70
f 76/189/71 255/186/71 592/185/71 445/188/71
f 125/190/72 441/191/72 593/192/72 446/193/72
f 75/139/73 256/194/73 593/192/73 441/191/73
f 82/195/74 446/193/74 593/192/74 256/194/74
f 74/137/75 241/171/75 594/196/75 257/197/75
f 241/171/76 73/148/76 258/198/76 594/196/76
f 594/196/77 258/198/77 80/199/77 251/200/77
f 257/197/78 594/196/78 251/200/78 81/201/78
f 72/146/79 239/174/79 595/202/79 259/203/79
f 239/174/80 71/157/80 253/179/80 595/202/80
f 595/202/81 253/179/81 78/183/81 249/204/81
f 259/203/82 595/202/82 249/204/82 79/26/82
f 70/155/83 237/177/83 596/205/83 254/180/83
f 237/177/84 69/164/84 255/186/84 596/205/84
f 596/205/85 255/186/85 76/189/85 247/206/85
f 254/180/86 596/205/86 247/206/86 77/181/86
f 75/139/87 242/138/87 597/207/87 256/194/87
f 242/138/88 74/137/88 257/197/88 597/207/88
f 597/207/89 257/197/89 81/201/89 252/208/89
f 256/194/90 597/207/90 252/208/90 82/195/90
f 73/148/91 240/147/91 598/209/91 258/198/91
f 240/147/92 72/146/92 259/203/92 598/209/92
f 598/209/93 259/203/93 79/26/93 250/210/93
f 258/198/94 598/209/94 250/210/94 80/199/94
f 125/211/95 446/212/95 599/213/95 448/214/95
f 82/195/96 266/215/96 599/213/96 446/212/96
f 89/216/97 448/214/97 599/213/97 266/215/97
f 81/201/98 251/200/98 600/217/98 267/218/98
f 251/200/99 80/199/99 268/219/99 600/217/99
f 600/217/100 268/219/100 87/220/100 264/221/100
f 267/218/101 600/217/101 264/221/101 88/222/101
f 79/26/102 249/204/102 601/223/102 269/224/102
f 249/204/103 78/183/103 270/225/103 601/223/103
f 601/223/104 270/225/104 85/226/104 262/227/104
f 269/224/105 601/223/105 262/227/105 86/228/105
f 77/181/106 247/206/106 602/229/106 271/230/106
f 247/206/107 76/189/107 272/231/107 602/229/107
f 602/229/108 272/231/108 83/232/108 260/233/108
f 271/230/109 602/229/109 260/233/109 84/234/109
f 82/195/110 252/208/110 603/235/110 266/215/110
f 252/208/111 81/201/111 267/218/111 603/235/111
f 603/235/112 267/218/112 88/222/112 265/236/112
f 266/215/113 603/235/113 265/236/113 89/216/113
f 80/199/114 250/210/114 604/237/114 268/219/114
f 250/210/115 79/26/115 269/224/115 604/237/115
f 604/237/116 269/224/116 86/228/116 263/238/116
f 268/219/117 604/237/117 263/238/117 87/220/117
f 78/183/118 248/182/118 605/239/118 270/225/118
f 248/182/119 77/181/119 271/230/119 605/239/119
f 605/239/120 271/230/120 84/234/120 261/240/120
f 270/225/121 605/239/121 261/240/121 85/226/121
f 76/189/122 445/241/122 606/242/122 272/231/122
f 126/243/123 447/244/123 606/242/123 445/241/123
f 83/232/124 272/231/124 606/242/124 447/244/124
f 84/234/125 260/233/125 607/245/125 279/246/125
f 260/233/126 83/232/126 280/247/126 607/245/126
f 607/245/127 280/247/127 90/248/127 273/249/127
f 279/246/128 607/245/128 273/249/128 91/250/128
f 89/216/129 265/236/129 608/251/129 281/252/129
f 265/236/130 88/222/130 282/253/130 608/251/130
f 608/251/131 282/253/131 95/254/131 278/255/131
f 281/252/132 608/251/132 278/255/132 96/256/132
f 87/220/133 263/238/133 609/257/133 283/258/133
f 263/238/134 86/228/134 284/259/134 609/257/134
f 609/257/135 284/259/135 93/34/135 276/260/135
f 283/258/136 609/257/136 276/260/136 94/261/136
f 85/226/137 261/240/137 610/262/137 285/263/137
f 261/240/138 84/234/138 279/246/138 610/262/138
f 610/262/139 279/246/139 91/250/139 274/264/139
f 285/263/140 610/262/140 274/264/140 92/265/140
f 83/232/141 447/266/141 611/267/141 280/247/141
f 126/268/142 449/269/142 611/267/142 447/266/142
f 90/248/143 280/247/143 611/267/143 449/269/143
f 125/270/144 448/271/144 612/272/144 450/273/144
f 89/216/145 281/252/145 612/272/145 448/271/145
f 96/256/146 450/273/146 612/272/146 281/252/146
f 88/222/147 264/221/147 613/274/147 282/253/147
f 264/221/148 87/220/148 283/258/148 613/274/148
f 613/274/149 283/258/149 94/261/149 277/275/149
f 282/253/150 613/274/150 277/275/150 95/254/150
f 86/228/151 262/227/151 614/276/151 284/259/151
f 262/227/152 85/226/152 285/263/152 614/276/152
f 614/276/153 285/263/153 92/265/153 275/277/153
f 284/259/154 614/276/154 275/277/154 93/34/154
f 96/256/155 278/255/155 615/278/155 292/279/155
f 278/255/156 95/254/156 293/280/156 615/278/156
f 615/278/157 293/280/157 102/281/157 291/282/157
f 292/279/158 615/278/158 291/282/158 103/283/158
f 94/261/159 276/260/159 616/284/159 294/285/159
f 276/260/160 93/34/160 295/286/160 616/284/160
f 616/284/161 295/286/161 100/287/161 289/288/161
f 294/285/162 616/284/162 289/288/162 101/289/162
f 92/265/163 274/264/163 617/290/163 296/291/163
f 274/264/164 91/250/164 297/292/164 617/290/164
f 617/290/165 297/292/165 98/293/165 287/294/165
f 296/291/166 617/290/166 287/294/166 99/295/166
f 90/248/167 449/296/167 618/297/167 298/298/167
f 126/299/168 451/300/168 618/297/168 449/296/168
f 97/301/169 298/298/169 618/297/169 451/300/169
f 125/302/170 450/303/170 619/304/170 452/305/170
f 96/256/171 292/279/171 619/304/171 450/303/171
f 103/283/172 452/305/172 619/304/172 292/279/172
f 95/254/173 277/275/173 620/306/173 293/280/173
f 277/275/174 94/261/174 294/285/174 620/306/174
f 620/306/175 294/285/175 101/289/175 290/307/175
f 293/280/176 620/306/176 290/307/176 102/281/176
f 93/34/177 275/277/177 621/308/177 295/286/177
f 275/277/178 92/265/178 296/291/178 621/308/178
f 621/308/179 296/291/179 99/295/179 288/309/179
f 295/286/180 621/308/180 288/309/180 100/287/180
f 91/250/181 273/249/181 622/310/181 297/292/181
f 273/249/182 90/248/182 298/298/182 622/310/182
f 622/310/183 298/298/183 97/301/183 286/311/183
f 297/292/184 622/310/184 286/311/184 98/293/184
f 97/301/185 451/312/185 623/313/185 305/314/185
f 126/315/186 453/316/186 623/313/186 451/312/186
f 104/317/187 305/314/187 623/313/187 453/316/187
f 125/318/188 452/319/188 624/320/188 454/321/188
f 103/283/189 306/322/189 624/320/189 452/319/189
f 110/323/190 454/321/190 624/320/190 306/322/190
f 102/281/191 290/307/191 625/324/191 307/325/191
f 290/307/192 101/289/192 308/326/192 625/324/192
f 625/324/193 308/326/193 108/327/193 303/328/193
f 307/325/194 625/324/194 303/328/194 109/329/194
f 100/287/195 288/309/195 626/330/195 309/331/195
f 288/309/196 99/295/196 310/332/196 626/330/196
f 626/330/197 310/332/197 106/333/197 301/334/197
f 309/331/198 626/330/198 301/334/198 107/335/198
f 98/293/199 286/311/199 627/336/199 311/337/199
f 286/311/200 97/301/200 305/314/200 627/336/200
f 627/336/201 305/314/201 104/317/201 299/338/201
f 311/337/202 627/336/202 299/338/202 105/339/202
f 103/283/203 291/282/203 628/340/203 306/322/203
f 291/282/204 102/281/204 307/325/204 628/340/204
f 628/340/205 307/325/205 109/329/205 304/341/205
f 306/322/206 628/340/206 304/341/206 110/323/206
f 101/289/207 289/288/207 629/342/207 308/326/207
f 289/288/208 100/287/208 309/331/208 629/342/208
f 629/342/209 309/331/209 107/335/209 302/343/209
f 308/326/210 629/342/210 302/343/210 108/327/210
f 99/295/211 287/294/211 630/344/211 310/332/211
f 287/294/212 98/293/212 311/337/212 630/344/212
f 630/344/213 311/337/213 105/339/213 300/345/213
f 310/332/214 630/344/214 300/345/214 106/333/214
f 109/329/215 303/328/215 631/346/215 318/347/215
f 303/328/216 108/327/216 319/348/216 631/346/216
f 631/346/217 319/348/217 115/349/217 316/350/217
f 318/347/218 631/346/218 316/350/218 116/351/218
f 107/335/219 301/334/219 632/352/219 320/353/219
f 301/334/220 106/333/220 321/354/220 632/352/220
f 632/352/221 321/354/221 113/355/221 314/356/221
f 320/353/222 632/352/222 314/356/222 114/357/222
f 105/339/223 299/338/223 633/358/223 322/359/223
f 299/338/224 104/317/224 323/360/224 633/358/224
f 633/358/225 323/360/225 111/361/225 312/362/225
f 322/359/226 633/358/226 312/362/226 112/363/226
f 110/323/227 304/341/227 634/364/227 324/365/227
f 304/341/228 109/329/228 318/347/228 634/364/228
f 634/364/229 318/347/229 116/351/229 317/366/229
f 324/365/230 634/364/230 317/366/230 117/367/230
f 108/327/231 302/343/231 635/368/231 319/348/231
f 302/343/232 107/335/232 320/353/232 635/368/232
f 635/368/233 320/353/233 114/357/233 315/369/233
f 319/348/234 635/368/234 315/369/234 115/349/234
f 106/333/235 300/345/235 636/370/235 321/354/235
f 300/345/236 105/339/236 322/359/236 636/370/236
f 636/370/237 322/359/237 112/363/237 313/371/237
f 321/354/238 636/370/238 313/371/238 113/355/238
f 104/317/239 453/372/239 637/373/239 323/360/239
f 126/374/240 455/375/240 637/373/240 453/372/240
f 111/361/241 323/360/241 637/373/241 455/375/241
f 125/376/242 454/377/242 638/378/242 456/379/242
f 110/323/243 324/365/243 638/378/243 454/377/243
f 117/367/244 456/379/244 638/378/244 324/365/244
f 117/367/245 317/366/245 639/380/245 332/381/245
f 317/366/246 116/351/246 333/382/246 639/380/246
f 639/380/247 333/382/247 123/383/247 330/384/247
f 332/381/248 639/380/248 330/384/248 124/385/248
f 115/349/249 315/369/249 640/386/249 334/387/249
f 315/369/250 114/357/250 335/388/250 640/386/250
f 640/386/251 335/388/251 121/389/251 328/390/251
f 334/387/252 640/386/252 328/390/252 122/391/252
f 113/355/253 313/371/253 641/392/253 336/393/253
f 313/371/254 112/363/254 337/394/254 641/392/254
f 641/392/255 337/394/255 119/395/255 326/396/255
f 336/393/256 641/392/256 326/396/256 120/397/256
f 111/361/257 455/398/257 642/399/257 338/400/257
f 126/401/258 457/402/258 642/399/258 455/398/258
f 118/403/259 338/400/259 642/399/259 457/402/259
f 125/404/260 456/405/260 643/406/260 331/407/260
f 117/367/261 332/381/261 643/406/261 456/405/261
f 124/385/262 331/407/262 643/406/262 332/381/262
f 116/351/263 316/350/263 644/408/263 333/382/263
f 316/350/264 115/349/264 334/387/264 644/408/264
f 644/408/265 334/387/265 122/391/265 329/409/265
f 333/382/266 644/408/266 329/409/266 123/383/266
f 114/357/267 314/356/267 645/410/267 335/388/267
f 314/356/268 113/355/268 336/393/268 645/410/268
f 645/410/269 336/393/269 120/397/269 327/411/269
f 335/388/270 645/410/270 327/411/270 121/389/270
f 112/363/271 312/362/271 646/412/271 337/394/271
f 312/362/272 111/361/272 338/400/272 646/412/272
f 646/412/273 338/400/273 118/403/273 325/413/273
f 337/394/274 646/412/274 325/413/274 119/395/274
f 122/391/275 328/390/275 647/414/275 346/415/275
f 328/390/276 121/389/276 347/416/276 647/414/276
f 647/414/277 347/416/277 130/417/277 343/418/277
f 346/415/278 647/414/278 343/418/278 131/419/278
f 120/397/279 326/396/279 648/420/279 348/421/279
f 326/396/280 119/395/280 349/422/280 648/420/280
f 648/420/281 349/422/281 128/423/281 341/424/281
f 348/421/282 648/420/282 341/424/282 129/425/282
f 118/403/283 457/426/283 649/427/283 350/428/283
f 126/429/284 339/430/284 649/427/284 457/426/284
f 127/431/285 350/428/285 649/427/285 339/430/285
f 125/432/286 331/433/286 650/434/286 458/435/286
f 124/385/287 351/436/287 650/434/287 331/433/287
f 133/437/288 458/435/288 650/434/288 351/436/288
f 123/383/289 329/409/289 651/438/289 352/439/289
f 329/409/290 122/391/290 346/415/290 651/438/290
f 651/438/291 346/415/291 131/419/291 344/440/291
f 352/439/292 651/438/292 344/440/292 132/441/292
f 121/389/293 327/411/293 652/442/293 347/416/293
f 327/411/294 120/397/294 348/421/294 652/442/294
f 652/442/295 348/421/295 129/425/295 342/443/295
f 347/416/296 652/442/296 342/443/296 130/417/296
f 119/395/297 325/413/297 653/444/297 349/422/297
f 325/413/298 118/403/298 350/428/298 653/444/298
f 653/444/299 350/428/299 127/431/299 340/445/299
f 349/422/300 653/444/300 340/445/300 128/423/300
f 124/385/301 330/384/301 654/446/301 351/436/301
f 330/384/302 123/383/302 352/439/302 654/446/302
f 654/446/303 352/439/303 132/441/303 345/447/303
f 351/436/304 654/446/304 345/447/304 133/437/304
f 125/448/305 458/449/305 655/450/305 460/451/305
f 133/437/306 359/452/306 655/450/306 458/449/306
f 140/453/307 460/451/307 655/450/307 359/452/307
f 132/441/308 344/440/308 656/454/308 360/455/308
f 344/440/309 131/419/309 361/456/309 656/454/309
f 656/454/310 361/456/310 138/457/310 357/458/310
f 360/455/311 656/454/311 357/458/311 139/459/311
f 130/417/312 342/443/312 657/460/312 362/461/312
f 342/443/313 129/425/313 363/462/313 657/460/313
f 657/460/314 363/462/314 136/463/314 355/464/314
f 362/461/315 657/460/315 355/464/315 137/465/315
f 128/423/316 340/445/316 658/466/316 364/467/316
f 340/445/317 127/431/317 365/468/317 658/466/317
f 658/466/318 365/468/318 134/469/318 353/470/318
f 364/467/319 658/466/319 353/470/319 135/471/319
f 133/437/320 345/447/320 659/472/320 359/452/320
f 345/447/321 132/441/321 360/455/321 659/472/321
f 659/472/322 360/455/322 139/459/322 358/473/322
f 359/452/323 659/472/323 358/473/323 140/453/323
f 131/419/324 343/418/324 660/474/324 361/456/324
f 343/418/325 130/417/325 362/461/325 660/474/325
f 660/474/326 362/461/326 137/465/326 356/475/326
f 361/456/327 660/474/327 356/475/327 138/457/327
f 129/425/328 341/424/328 661/476/328 363/462/328
f 341/424/329 128/423/329 364/467/329 661/476/329
f 661/476/330 364/467/330 135/471/330 354/477/330
f 363/462/331 661/476/331 354/477/331 136/463/331
f 127/431/332 339/478/332 662/479/332 365/468/332
f 126/480/333 459/481/333 662/479/333 339/478/333
f 134/469/334 365/468/334 662/479/334 459/481/334
f 137/465/335 355/464/335 663/482/335 372/483/335
f 355/464/336 136/463/336 373/484/336 663/482/336
f 663/482/337 373/484/337 143/485/337 368/486/337
f 372/483/338 663/482/338 368/486/338 144/487/338
f 135/471/339 353/470/339 664/488/339 374/489/339
f 353/470/340 134/469/340 375/490/340 664/488/340
f 664/488/341 375/490/341 141/491/341 366/492/341
f 374/489/342 664/488/342 366/492/342 142/493/342
f 140/453/343 358/473/343 665/494/343 376/495/343
f 358/473/344 139/459/344 377/496/344 665/494/344
f 665/494/345 377/496/345 146/497/345 371/498/345
f 376/495/346 665/494/346 371/498/346 147/499/346
f 138/457/347 356/475/347 666/500/347 378/501/347
f 356/475/348 137/465/348 372/483/348 666/500/348
f 666/500/349 372/483/349 144/487/349 369/502/349
f 378/501/350 666/500/350 369/502/350 145/503/350
f 136/463/351 354/477/351 667/504/351 373/484/351
f 354/477/352 135/471/352 374/489/352 667/504/352
f 667/504/353 374/489/353 142/493/353 367/505/353
f 373/484/354 667/504/354 367/505/354 143/485/354
f 134/469/355 459/506/355 668/507/355 375/490/355
f 126/508/356 461/509/356 668/507/356 459/506/356
f 141/491/357 375/490/357 668/507/357 461/509/357
f 125/510/358 460/511/358 669/512/358 462/513/358
f 140/453/359 376/495/359 669/512/359 460/511/359
f 147/499/360 462/513/360 669/512/360 376/495/360
f 139/459/361 357/458/361 670/514/361 377/496/361
f 357/458/362 138/457/362 378/501/362 670/514/362
f 670/514/363 378/501/363 145/503/363 370/515/363
f 377/496/364 670/514/364 370/515/364 146/497/364
f 147/499/365 371/498/365 671/516/365 385/517/365
f 371/498/366 146/497/366 386/518/366 671/516/366
f 671/516/367 386/518/367 153/519/367 384/520/367
f 385/517/368 671/516/368 384/520/368 154/521/368
f 145/503/369 369/502/369 672/522/369 387/523/369
f 369/502/370 144/487/370 388/524/370 672/522/370
f 672/522/371 388/524/371 151/98/371 382/525/371
f 387/523/372 672/522/372 382/525/372 152/526/372
f 143/485/373 367/505/373 673/527/373 389/528/373
f 367/505/374 142/493/374 390/529/374 673/527/374
f 673/527/375 390/529/375 149/530/375 380/531/375
f 389/528/376 673/527/376 380/531/376 150/532/376
f 141/491/377 461/533/377 674/534/377 391/535/377
f 126/536/378 463/537/378 674/534/378 461/533/378
f 148/538/379 391/535/379 674/534/379 463/537/379
f 125/539/380 462/540/380 675/541/380 464/542/380
f 147/499/381 385/517/381 675/541/381 462/540/381
f 154/521/382 464/542/382 675/541/382 385/517/382
f 146/497/383 370/515/383 676/543/383 386/518/383
f 370/515/384 145/503/384 387/523/384 676/543/384
f 676/543/385 387/523/385 152/526/385 383/544/385
f 386/518/386 676/543/386 383/544/386 153/519/386
f 144/487/387 368/486/387 677/545/387 388/524/387
f 368/486/388 143/485/388 389/528/388 677/545/388
f 677/545/389 389/528/389 150/532/389 381/546/389
f 388/524/390 677/545/390 381/546/390 151/98/390
f 142/493/391 366/492/391 678/547/391 390/529/391
f 366/492/392 141/491/392 391/535/392 678/547/392
f 678/547/393 391/535/393 148/538/393 379/548/393
f 390/529/394 678/547/394 379/548/394 149/530/394
f 150/549/395 380/550/395 679/551/395 398/552/395
f 380/550/396 149/553/396 399/554/396 679/551/396
f 679/551/397 399/554/397 156/555/397 393/556/397
f 398/552/398 679/551/398 393/556/398 157/557/398
f 148/558/399 463/559/399 680/560/399 400/561/399
f 126/562/400 465/563/400 680/560/400 463/559/400
f 155/564/401 400/561/401 680/560/401 465/563/401
f 125/565/402 464/566/402 681/567/402 466/568/402
f 154/569/403 401/570/403 681/567/403 464/566/403
f 161/571/404 466/568/404 681/567/404 401/570/404
f 153/572/405 383/573/405 682/574/405 402/575/405
f 383/573/406 152/576/406 403/577/406 682/574/406
f 682/574/407 403/577/407 159/578/407 396/579/407
f 402/575/408 682/574/408 396/579/408 160/580/408
f 151/1/409 381/581/409 683/582/409 404/583/409
f 381/581/410 150/549/410 398/552/410 683/582/410
f 683/582/411 398/552/411 157/557/411 394/584/411
f 404/583/412 683/582/412 394/584/412 158/585/412
f 149/553/413 379/586/413 684/587/413 399/554/413
f 379/586/414 148/558/414 400/561/414 684/587/414
f 684/587/415 400/561/415 155/564/415 392/588/415
f 399/554/416 684/587/416 392/588/416 156/555/416
f 154/569/417 384/589/417 685/590/417 401/570/417
f 384/589/418 153/572/418 402/575/418 685/590/418
f 685/590/419 402/575/419 160/580/419 397/591/419
f 401/570/420 685/590/420 397/591/420 161/571/420
f 152/576/421 382/592/421 686/593/421 403/577/421
f 382/592/422 151/1/422 404/583/422 686/593/422
f 686/593/423 404/583/423 158/585/423 395/594/423
f 403/577/424 686/593/424 395/594/424 159/578/424
f 125/595/425 466/596/425 687/597/425 468/598/425
f 161/571/426 411/599/426 687/597/426 466/596/426
f 168/600/427 468/598/427 687/597/427 411/599/427
f 160/580/428 396/579/428 688/601/428 412/602/428
f 396/579/429 159/578/429 413/603/429 688/601/429
f 688/601/430 413/603/430 166/604/430 409/605/430
f 412/602/431 688/601/431 409/605/431 167/606/431
f 158/585/432 394/584/432 689/607/432 414/608/432
f 394/584/433 157/557/433 415/609/433 689/607/433
f 689/607/434 415/609/434 164/610/434 407/611/434
f 414/608/435 689/607/435 407/611/435 165/612/435
f 156/555/436 392/588/436 690/613/436 416/614/436
f 392/588/437 155/564/437 417/615/437 690/613/437
f 690/613/438 417/615/438 162/616/438 405/617/438
f 416/614/439 690/613/439 405/617/439 163/618/439
f 161/571/440 397/591/440 691/619/440 411/599/440
f 397/591/441 160/580/441 412/602/441 691/619/441
f 691/619/442 412/602/442 167/606/442 410/620/442
f 411/599/443 691/619/443 410/620/443 168/600/443
f 159/578/444 395/594/444 692/621/444 413/603/444
f 395/594/445 158/585/445 414/608/445 692/621/445
f 692/621/446 414/608/446 165/612/446 408/622/446
f 413/603/447 692/621/447 408/622/447 166/604/447
f 157/557/448 393/556/448 693/623/448 415/609/448
f 393/556/449 156/555/449 416/614/449 693/623/449
f 693/623/450 416/614/450 163/618/450 406/624/450
f 415/609/451 693/623/451 406/624/451 164/610/451
f 155/564/452 465/625/452 694/626/452 417/615/452
f 126/627/453 467/628/453 694/626/453 465/625/453
f 162/616/454 417/615/454 694/626/454 467/628/454
f 163/618/455 405/617/455 695/629/455 424/630/455
f 405/617/456 162/616/456 425/631/456 695/629/456
f 695/629/457 425/631/457 169/632/457 418/633/457
f 424/630/458 695/629/458 418/633/458 170/634/458
f 168/600/459 410/620/459 696/635/459 426/636/459
f 410/620/460 167/606/460 427/637/460 696/635/460
f 696/635/461 427/637/461 174/638/461 423/639/461
f 426/636/462 696/635/462 423/639/462 175/640/462
f 166/604/463 408/622/463 697/641/463 428/642/463
f 408/622/464 165/612/464 429/643/464 697/641/464
f 697/641/465 429/643/465 172/644/465 421/645/465
f 428/642/466 697/641/466 421/645/466 173/646/466
f 164/610/467 406/624/467 698/647/467 430/648/467
f 406/624/468 163/618/468 424/630/468 698/647/468
f 698/647/469 424/630/469 170/634/469 419/649/469
f 430/648/470 698/647/470 419/649/470 171/650/470
f 162/616/471 467/651/471 699/652/471 425/631/471
f 126/653/472 469/654/472 699/652/472 467/651/472
f 169/632/473 425/631/473 699/652/473 469/654/473
f 125/655/474 468/656/474 700/657/474 470/658/474
f 168/600/475 426/636/475 700/657/475 468/656/475
f 175/640/476 470/658/476 700/657/476 426/636/476
f 167/606/477 409/605/477 701/659/477 427/637/477
f 409/605/478 166/604/478 428/642/478 701/659/478
f 701/659/479 428/642/479 173/646/479 422/660/479
f 427/637/480 701/659/480 422/660/480 174/638/480
f 165/612/481 407/611/481 702/661/481 429/643/481
f 407/611/482 164/610/482 430/648/482 702/661/482
f 702/661/483 430/648/483 171/650/483 420/662/483
f 429/643/484 702/661/484 420/662/484 172/644/484
f 175/640/485 423/639/485 703/663/485 471/664/485
f 423/639/486 174/638/486 432/665/486 703/663/486
f 703/663/487 432/665/487 178/135/487 438/132/487
f 471/664/488 703/663/488 438/132/488 68/131/488
f 173/646/489 421/645/489 704/666/489 472/667/489
f 421/645/490 172/644/490 473/668/490 704/666/490
f 704/666/491 473/668/491 66/144/491 236/141/491
f 472/667/492 704/666/492 236/141/492 67/140/492
f 171/650/493 419/649/493 705/669/493 474/670/493
f 419/649/494 170/634/494 433/671/494 705/669/494
f 705/669/495 433/671/495 177/153/495 436/150/495
f 474/670/496 705/669/496 436/150/496 65/149/496
f 169/632/497 469/672/497 706/673/497 434/674/497
f 126/675/498 435/676/498 706/673/498 469/672/498
f 176/158/499 434/674/499 706/673/499 435/676/499
f 125/677/500 470/678/500 707/679/500 439/680/500
f 175/640/501 471/664/501 707/679/501 470/678/501
f 68/131/502 439/680/502 707/679/502 471/664/502
f 174/638/503 422/660/503 708/681/503 432/665/503
f 422/660/504 173/646/504 472/667/504 708/681/504
f 708/681/505 472/667/505 67/140/505 437/169/505
f 432/665/506 708/681/506 437/169/506 178/135/506
f 172/644/507 420/662/507 709/682/507 473/668/507
f 420/662/508 171/650/508 474/670/508 709/682/508
f 709/682/509 474/670/509 65/149/509 235/172/509
f 473/668/510 709/682/510 235/172/510 66/144/510
f 170/634/511 418/633/511 710/683/511 433/671/511
f 418/633/512 169/632/512 434/674/512 710/683/512
f 710/683/513 434/674/513 176/158/513 431/175/513
f 433/671/514 710/683/514 431/175/514 177/153/514
f 219/684/515 523/685/515 711/686/515 575/687/515
f 523/685/516 203/684/516 577/687/516 711/686/516
f 711/686/517 577/687/517 227/687/517 568/687/517
f 575/687/518 711/686/518 568/687/518 229/687/518
f 199/688/519 518/689/519 712/690/519 493/691/519
f 518/689/520 197/692/520 480/693/520 712/690/520
f 712/690/521 480/693/521 186/26/521 489/694/521
f 493/691/522 712/690/522 489/694/522 189/695/522
f 224/26/523 566/696/523 713/697/523 560/698/523
f 566/696/524 223/181/524 531/699/524 713/697/524
f 713/697/525 531/699/525 208/700/525 527/696/525
f 560/698/526 713/697/526 527/696/526 207/698/526
f 195/701/527 505/702/527 714/703/527 491/704/527
f 505/702/528 194/705/528 486/706/528 714/703/528
f 714/703/529 486/706/529 180/25/529 476/707/529
f 491/704/530 714/703/530 476/707/530 187/684/530
f 200/708/531 510/709/531 715/710/531 546/711/531
f 510/709/532 185/712/532 545/713/532 715/710/532
f 715/710/533 545/713/533 215/42/533 541/714/533
f 546/711/534 715/710/534 541/714/534 218/715/534
f 192/716/535 496/717/535 716/718/535 503/719/535
f 496/717/535 182/10/535 477/720/535 716/718/535
f 716/718/536 477/720/536 180/721/536 486/722/536
f 503/719/536 716/718/536 486/722/536 194/723/536
f 193/724/537 502/725/537 717/726/537 497/727/537
f 502/725/538 195/701/538 491/704/538 717/726/538
f 717/726/539 491/704/539 187/684/539 487/728/539
f 497/727/540 717/726/540 487/728/540 179/41/540
f 185/712/541 481/729/541 718/730/541 482/731/541
f 481/729/542 189/695/542 492/732/542 718/730/542
f 718/730/543 492/732/543 190/733/543 484/734/543
f 482/731/544 718/730/544 484/734/544 183/735/544
f 200/708/545 516/736/545 719/737/545 510/709/545
f 516/736/546 199/688/546 493/691/546 719/737/546
f 719/737/547 493/691/547 189/695/547 481/729/547
f 510/709/548 719/737/548 481/729/548 185/712/548
f 179/738/549 487/739/549 720/740/549 475/741/549
f 487/739/550 187/742/550 494/743/550 720/740/550
f 720/740/551 494/743/551 188/744/551 478/745/551
f 475/741/552 720/740/552 478/745/552 181/746/552
f 181/746/553 478/745/553 721/747/553 479/748/553
f 478/745/554 188/744/554 500/749/554 721/747/554
f 721/747/555 500/749/555 196/750/555 501/751/555
f 479/748/556 721/747/556 501/751/556 191/752/556
f 198/753/557 515/754/557 722/755/557 508/756/557
f 515/754/558 202/757/558 499/758/558 722/755/558
f 722/755/559 499/758/559 195/701/559 502/725/559
f 508/756/560 722/755/560 502/725/560 193/724/560
f 197/759/535 507/760/535 723/761/535 514/762/535
f 507/760/535 192/716/535 503/719/535 723/761/535
f 723/761/536 503/719/536 194/723/536 498/763/536
f 514/762/536 723/761/536 498/763/536 201/764/536
f 181/746/561 479/748/561 724/765/561 544/766/561
f 479/748/562 191/752/562 543/767/562 724/765/562
f 724/765/563 543/767/563 213/768/563 536/769/563
f 544/766/564 724/765/564 536/769/564 211/770/564
f 202/757/565 513/771/565 725/772/565 499/758/565
f 513/771/566 201/773/566 498/774/566 725/772/566
f 725/772/566 498/774/566 194/705/566 505/702/566
f 499/758/565 725/772/565 505/702/565 195/701/565
f 188/744/567 488/775/567 726/776/567 500/749/567
f 488/775/568 182/777/568 496/778/568 726/776/568
f 726/776/569 496/778/569 192/779/569 506/780/569
f 500/749/570 726/776/570 506/780/570 196/750/570
f 190/733/571 490/781/571 727/782/571 512/783/571
f 490/781/572 184/784/572 511/785/572 727/782/572
f 727/782/573 511/785/573 201/773/573 513/771/573
f 512/783/574 727/782/574 513/771/574 202/757/574
f 186/26/535 480/786/535 728/787/535 483/788/535
f 480/786/535 197/759/535 514/762/535 728/787/535
f 728/787/536 514/762/536 201/764/536 511/789/536
f 483/788/536 728/787/536 511/789/536 184/784/536
f 183/735/575 484/734/575 729/790/575 485/791/575
f 484/734/576 190/733/576 512/783/576 729/790/576
f 729/790/577 512/783/577 202/757/577 515/754/577
f 485/791/578 729/790/578 515/754/578 198/753/578
f 191/752/579 501/751/579 730/792/579 495/793/579
f 501/751/580 196/750/580 509/794/580 730/792/580
f 730/792/581 509/794/581 199/688/581 516/736/581
f 495/793/582 730/792/582 516/736/582 200/708/582
f 191/795/583 495/796/583 731/797/583 504/798/583
f 495/796/584 200/799/584 517/800/584 731/797/584
f 731/797/585 517/800/585 198/801/585 508/802/585
f 504/798/586 731/797/586 508/802/586 193/803/586
f 196/750/587 506/780/587 732/804/587 509/794/587
f 506/780/588 192/779/588 507/805/588 732/804/588
f 732/804/588 507/805/588 197/692/588 518/689/588
f 509/794/587 732/804/587 518/689/587 199/688/587
f 203/742/589 519/806/589 733/807/589 522/808/589
f 519/806/590 204/809/590 520/810/590 733/807/590
f 733/807/591 520/810/591 205/777/591 521/811/591
f 522/808/592 733/807/592 521/811/592 206/812/592
f 222/721/593 557/813/593 734/813/593 554/814/593
f 557/813/594 221/10/594 525/815/594 734/813/594
f 734/813/595 525/815/595 205/815/595 520/816/595
f 554/814/596 734/813/596 520/816/596 204/817/596
f 221/777/597 556/818/597 735/819/597 525/820/597
f 556/818/598 220/821/598 552/822/598 735/819/598
f 735/819/599 552/822/599 206/812/599 521/811/599
f 525/820/600 735/819/600 521/811/600 205/777/600
f 219/684/601 555/823/601 736/824/601 523/685/601
f 555/823/602 222/25/602 554/825/602 736/824/602
f 736/824/603 554/825/603 204/825/603 519/826/603
f 523/685/604 736/824/604 519/826/604 203/684/604
f 209/827/605 528/828/605 737/829/605 530/830/605
f 528/828/606 207/698/606 527/696/606 737/829/606
f 737/829/607 527/696/607 208/700/607 529/831/607
f 530/830/608 737/829/608 529/831/608 210/832/608
f 220/821/609 558/833/609 738/834/609 576/835/609
f 558/833/610 219/742/610 575/836/610 738/834/610
f 738/834/611 575/836/611 229/742/611 572/837/611
f 576/835/612 738/834/612 572/837/612 233/838/612
f 223/181/613 564/839/613 739/840/613 531/699/613
f 564/839/614 226/841/614 562/842/614 739/840/614
f 739/840/615 562/842/615 210/832/615 529/831/615
f 531/699/616 739/840/616 529/831/616 208/700/616
f 225/843/617 563/844/617 740/845/617 533/846/617
f 563/844/618 224/26/618 560/698/618 740/845/618
f 740/845/619 560/698/619 207/698/619 528/828/619
f 533/846/620 740/845/620 528/828/620 209/827/620
f 218/799/621 541/847/621 741/848/621 542/849/621
f 541/847/622 215/42/622 537/850/622 741/848/622
f 741/848/623 537/850/623 214/851/623 538/852/623
f 542/849/624 741/848/624 538/852/624 216/801/624
f 211/853/625 536/854/625 742/855/625 535/856/625
f 536/854/626 213/795/626 540/857/626 742/855/626
f 742/855/627 540/857/627 217/803/627 539/858/627
f 535/856/628 742/855/628 539/858/628 212/859/628
f 193/724/629 497/727/629 743/860/629 548/861/629
f 497/727/630 179/41/630 547/862/630 743/860/630
f 743/860/631 547/862/631 212/863/631 539/864/631
f 548/861/632 743/860/632 539/864/632 217/865/632
f 179/738/633 475/741/633 744/866/633 547/867/633
f 475/741/634 181/746/634 544/766/634 744/866/634
f 744/866/635 544/766/635 211/770/635 535/868/635
f 547/867/636 744/866/636 535/868/636 212/869/636
f 198/801/637 517/800/637 745/870/637 549/871/637
f 517/800/638 200/799/638 546/872/638 745/870/638
f 745/870/639 546/872/639 218/799/639 542/849/639
f 549/871/640 745/870/640 542/849/640 216/801/640
f 191/795/641 504/798/641 746/873/641 543/874/641
f 504/798/642 193/803/642 548/875/642 746/873/642
f 746/873/643 548/875/643 217/803/643 540/857/643
f 543/874/644 746/873/644 540/857/644 213/795/644
f 185/712/645 482/731/645 747/876/645 545/713/645
f 482/731/646 183/735/646 550/877/646 747/876/646
f 747/876/647 550/877/647 214/851/647 537/850/647
f 545/713/648 747/876/648 537/850/648 215/42/648
f 183/735/649 485/791/649 748/878/649 550/877/649
f 485/791/650 198/753/650 549/879/650 748/878/650
f 748/878/651 549/879/651 216/880/651 538/881/651
f 550/877/652 748/878/652 538/881/652 214/851/652
f 187/684/653 476/707/653 749/882/653 551/687/653
f 476/707/654 180/25/654 526/825/654 749/882/654
f 749/882/655 526/825/655 222/25/655 555/823/655
f 551/687/656 749/882/656 555/823/656 219/684/656
f 182/777/657 488/775/657 750/883/657 553/820/657
f 488/775/658 188/744/658 524/884/658 750/883/658
f 750/883/659 524/884/659 220/821/659 556/818/659
f 553/820/660 750/883/660 556/818/660 221/777/660
f 180/721/536 477/720/536 751/885/536 526/814/536
f 477/720/535 182/10/535 553/815/535 751/885/535
f 751/885/535 553/815/535 221/10/535 557/813/535
f 526/814/536 751/885/536 557/813/536 222/721/536
f 188/744/661 494/743/661 752/886/661 524/884/661
f 494/743/662 187/742/662 551/836/662 752/886/662
f 752/886/663 551/836/663 219/742/663 558/833/663
f 524/884/664 752/886/664 558/833/664 220/821/664
f 189/695/665 489/694/665 753/887/665 561/888/665
f 489/694/666 186/26/666 532/889/666 753/887/666
f 753/887/667 532/889/667 224/26/667 563/844/667
f 561/888/668 753/887/668 563/844/668 225/843/668
f 184/784/669 490/781/669 754/890/669 559/891/669
f 490/781/670 190/733/670 534/892/670 754/890/670
f 754/890/671 534/892/671 226/841/671 564/839/671
f 559/891/672 754/890/672 564/839/672 223/181/672
f 190/733/673 492/732/673 755/893/673 534/892/673
f 492/732/674 189/695/674 561/888/674 755/893/674
f 755/893/675 561/888/675 225/843/675 565/894/675
f 534/892/676 755/893/676 565/894/676 226/841/676
f 186/26/535 483/788/535 756/895/535 532/889/535
f 483/788/536 184/784/536 559/891/536 756/895/536
f 756/895/536 559/891/536 223/181/536 566/696/536
f 532/889/535 756/895/535 566/696/535 224/26/535
f 233/838/677 572/837/677 757/896/677 571/897/677
f 572/837/678 229/742/678 568/836/678 757/896/678
f 757/896/679 568/836/679 227/742/679 567/837/679
f 571/897/680 757/896/680 567/837/680 228/838/680
f 234/898/681 574/899/681 758/900/681 573/901/681
f 574/899/682 232/902/682 570/903/682 758/900/682
f 758/900/683 570/903/683 230/904/683 569/899/683
f 573/901/684 758/900/684 569/899/684 231/898/684
f 226/841/685 565/894/685 759/905/685 579/906/685
f 565/894/686 225/843/686 578/907/686 759/905/686
f 759/905/687 578/907/687 232/902/687 574/899/687
f 579/906/688 759/905/688 574/899/688 234/898/688
f 206/812/689 552/822/689 760/908/689 580/909/689
f 552/822/690 220/821/690 576/835/690 760/908/690
f 760/908/691 576/835/691 233/838/691 571/897/691
f 580/909/692 760/908/692 571/897/692 228/838/692
f 209/827/693 530/830/693 761/910/693 582/911/693
f 530/830/694 210/832/694 581/912/694 761/910/694
f 761/910/695 581/912/695 231/898/695 569/899/695
f 582/911/696 761/910/696 569/899/696 230/904/696
f 203/742/697 522/808/697 762/913/697 577/836/697
f 522/808/698 206/812/698 580/909/698 762/913/698
f 762/913/699 580/909/699 228/838/699 567/837/699
f 577/836/700 762/913/700 567/837/700 227/742/700
f 225/843/701 533/846/701 763/914/701 578/907/701
f 533/846/702 209/827/702 582/911/702 763/914/702
f 763/914/703 582/911/703 230/904/703 570/903/703
f 578/907/704 763/914/704 570/903/704 232/902/704
f 210/832/705 562/842/705 764/915/705 581/912/705
f 562/842/706 226/841/706 579/906/706 764/915/706
f 764/915/707 579/906/707 234/898/707 573/901/707
f 581/912/708 764/915/708 573/901/708 231/898/708
